<svg xmlns="http://www.w3.org/2000/svg" viewBox="149.5344271570014 356.063344 1261.8370579915136 332.26592" id="svg2" version="1.1" style="max-height: 500px" width="1261.8370579915136" height="332.26592">
  <defs id="defs6">
    <clipPath id="clipPath16" clipPathUnits="userSpaceOnUse">
      <path id="path14" d="M 0,841.89 H 1190.551 V 0 H 0 Z"/>
    </clipPath>
  </defs>
  
  <g transform="matrix(1.3333333,0,0,-1.3333333,0,1122.52)" id="g8">
    <g id="g10">
      <g clip-path="url(#clipPath16)" id="g12">
        <g transform="translate(288.7431,383.6421)" id="g18">
          <path id="path20" style="fill:#2859a3;fill-opacity:1;fill-rule:nonzero;stroke:none" d="m 0,0 -3.369,-7.935 h 6.763 z m 16.992,-19.336 c 0.098,-0.195 0.086,-0.387 -0.036,-0.574 -0.123,-0.187 -0.297,-0.28 -0.525,-0.28 H 9.448 c -0.472,0 -0.805,0.219 -1.001,0.659 L 6.25,-14.429 H -6.104 l -2.197,-5.102 c -0.146,-0.44 -0.48,-0.659 -1.001,-0.659 h -6.958 c -0.228,0 -0.403,0.093 -0.525,0.28 -0.122,0.187 -0.134,0.379 -0.036,0.574 l 15.014,32.544 c 0.342,0.765 0.928,1.147 1.758,1.147 0.798,0 1.359,-0.366 1.685,-1.098 z"/>
        </g>
        <g transform="translate(330.3203,389.9897)" id="g22">
          <path id="path24" style="fill:#2859a3;fill-opacity:1;fill-rule:nonzero;stroke:none" d="m 0,0 v -9.082 h 7.056 c 1.806,0 3.125,0.496 3.955,1.489 0.602,0.684 0.903,1.668 0.903,2.954 C 11.914,-1.547 10.343,0 7.202,0 Z m 7.959,7.471 c 3.727,0 6.657,-1.067 8.789,-3.199 2.165,-2.165 3.247,-5.151 3.247,-8.959 0,-3.777 -1.115,-6.707 -3.345,-8.79 -2.181,-2.035 -5.143,-3.051 -8.886,-3.051 H 0 v -9.302 c 0,-0.473 -0.236,-0.708 -0.708,-0.708 H -7.3 c -0.472,0 -0.708,0.235 -0.708,0.708 V 6.763 c 0,0.471 0.236,0.708 0.708,0.708 z"/>
        </g>
        <g transform="translate(375.2666,389.9897)" id="g26">
          <path id="path28" style="fill:#2859a3;fill-opacity:1;fill-rule:nonzero;stroke:none" d="m 0,0 v -9.082 h 7.056 c 1.806,0 3.125,0.496 3.955,1.489 0.602,0.684 0.903,1.668 0.903,2.954 C 11.914,-1.547 10.343,0 7.202,0 Z m 7.959,7.471 c 3.727,0 6.657,-1.067 8.789,-3.199 2.165,-2.165 3.247,-5.151 3.247,-8.959 0,-3.777 -1.115,-6.707 -3.345,-8.79 -2.181,-2.035 -5.143,-3.051 -8.886,-3.051 H 0 v -9.302 c 0,-0.473 -0.236,-0.708 -0.708,-0.708 H -7.3 c -0.472,0 -0.708,0.235 -0.708,0.708 V 6.763 c 0,0.471 0.236,0.708 0.708,0.708 z"/>
        </g>
        <g transform="translate(440.4033,363.4516)" id="g30">
          <path id="path32" style="fill:#2859a3;fill-opacity:1;fill-rule:nonzero;stroke:none" d="m 0,0 c -0.472,0 -0.708,0.235 -0.708,0.708 v 32.593 c 0,0.471 0.236,0.708 0.708,0.708 h 6.592 c 0.472,0 0.708,-0.237 0.708,-0.708 V 0.708 C 7.3,0.235 7.064,0 6.592,0 Z"/>
        </g>
        <g transform="translate(473.1425,382.0063)" id="g34">
          <path id="path36" style="fill:#2859a3;fill-opacity:1;fill-rule:nonzero;stroke:none" d="m 0,0 v -17.847 c 0,-0.472 -0.236,-0.708 -0.708,-0.708 H -7.3 c -0.472,0 -0.708,0.236 -0.708,0.708 v 31.836 c 0,0.57 0.269,1.001 0.806,1.294 0.211,0.098 0.472,0.13 0.781,0.098 0.309,-0.033 0.57,-0.147 0.781,-0.342 L 14.6,-3.149 v 17.895 c 0,0.472 0.235,0.708 0.708,0.708 h 6.591 c 0.473,0 0.708,-0.236 0.708,-0.708 v -31.909 c 0,-0.586 -0.268,-1.001 -0.805,-1.245 -0.537,-0.293 -1.05,-0.229 -1.538,0.195 z"/>
        </g>
        <g transform="translate(521.287,389.6479)" id="g38">
          <path id="path40" style="fill:#2859a3;fill-opacity:1;fill-rule:nonzero;stroke:none" d="m 0,0 v -18.408 h 3.76 c 4.101,0 7.08,0.984 8.935,2.954 1.4,1.48 2.1,3.499 2.1,6.055 0,2.701 -0.684,4.817 -2.051,6.347 C 10.938,-1.018 7.992,0 3.906,0 Z m 4.053,7.812 c 5.778,0 10.376,-1.457 13.794,-4.37 3.499,-2.995 5.249,-7.292 5.249,-12.89 0,-5.534 -1.783,-9.75 -5.347,-12.647 -3.304,-2.734 -7.951,-4.101 -13.94,-4.101 H -7.3 c -0.179,0 -0.342,0.069 -0.488,0.207 -0.147,0.138 -0.22,0.305 -0.22,0.501 V 7.104 c 0,0.196 0.073,0.363 0.22,0.5 0.146,0.139 0.309,0.208 0.488,0.208 z"/>
        </g>
        <g transform="translate(561.9365,363.4516)" id="g42">
          <path id="path44" style="fill:#2859a3;fill-opacity:1;fill-rule:nonzero;stroke:none" d="m 0,0 c -0.472,0 -0.708,0.235 -0.708,0.708 v 32.593 c 0,0.471 0.236,0.708 0.708,0.708 h 6.592 c 0.472,0 0.708,-0.237 0.708,-0.708 V 0.708 C 7.3,0.235 7.064,0 6.592,0 Z"/>
        </g>
        <g transform="translate(602.5375,383.6421)" id="g46">
          <path id="path48" style="fill:#2859a3;fill-opacity:1;fill-rule:nonzero;stroke:none" d="m 0,0 -3.37,-7.935 h 6.764 z m 16.992,-19.336 c 0.098,-0.195 0.085,-0.387 -0.037,-0.574 -0.122,-0.187 -0.297,-0.28 -0.524,-0.28 H 9.448 c -0.472,0 -0.805,0.219 -1.001,0.659 L 6.25,-14.429 H -6.104 l -2.197,-5.102 c -0.147,-0.44 -0.48,-0.659 -1.001,-0.659 h -6.958 c -0.228,0 -0.403,0.093 -0.525,0.28 -0.122,0.187 -0.134,0.379 -0.037,0.574 l 15.015,32.544 c 0.342,0.765 0.928,1.147 1.758,1.147 0.797,0 1.359,-0.366 1.685,-1.098 z"/>
        </g>
        <g transform="translate(671.6049,370.9467)" id="g50">
          <path id="path52" style="fill:#2859a3;fill-opacity:1;fill-rule:nonzero;stroke:none" d="m 0,0 h 15.747 c 0.472,0 0.708,-0.229 0.708,-0.684 v -6.103 c 0,-0.473 -0.236,-0.708 -0.708,-0.708 H -7.3 c -0.179,0 -0.342,0.069 -0.488,0.207 -0.147,0.139 -0.22,0.306 -0.22,0.501 v 32.593 c 0,0.195 0.073,0.362 0.22,0.5 0.146,0.138 0.309,0.208 0.488,0.208 h 6.592 C -0.236,26.514 0,26.277 0,25.806 Z"/>
        </g>
        <g transform="translate(705.7358,363.4516)" id="g54">
          <path id="path56" style="fill:#2859a3;fill-opacity:1;fill-rule:nonzero;stroke:none" d="m 0,0 c -0.473,0 -0.708,0.235 -0.708,0.708 v 32.593 c 0,0.471 0.235,0.708 0.708,0.708 h 6.592 c 0.471,0 0.708,-0.237 0.708,-0.708 V 0.708 C 7.3,0.235 7.063,0 6.592,0 Z"/>
        </g>
        <g transform="translate(760.3745,363.4516)" id="g58">
          <path id="path60" style="fill:#2859a3;fill-opacity:1;fill-rule:nonzero;stroke:none" d="m 0,0 c -0.473,0 -0.708,0.235 -0.708,0.708 v 17.749 l -9.229,-8.35 c -0.341,-0.341 -0.765,-0.512 -1.269,-0.512 -0.473,0 -0.888,0.154 -1.245,0.464 l -9.741,8.545 V 0.708 C -22.192,0.235 -22.429,0 -22.9,0 h -6.348 c -0.439,0 -0.659,0.235 -0.659,0.708 v 31.836 c 0,0.65 0.268,1.123 0.805,1.416 0.553,0.244 1.075,0.154 1.563,-0.269 L -11.304,18.994 4.614,33.789 c 0.472,0.423 0.985,0.513 1.538,0.269 0.57,-0.31 0.855,-0.782 0.855,-1.416 V 0.708 C 7.007,0.235 6.787,0 6.348,0 Z"/>
        </g>
        <g transform="translate(785.5698,363.4516)" id="g62">
          <path id="path64" style="fill:#2859a3;fill-opacity:1;fill-rule:nonzero;stroke:none" d="m 0,0 c -0.473,0 -0.708,0.235 -0.708,0.708 v 32.593 c 0,0.471 0.235,0.708 0.708,0.708 h 6.592 c 0.471,0 0.708,-0.237 0.708,-0.708 V 0.708 C 7.3,0.235 7.063,0 6.592,0 Z"/>
        </g>
        <g transform="translate(836.7661,397.4604)" id="g66">
          <path id="path68" style="fill:#2859a3;fill-opacity:1;fill-rule:nonzero;stroke:none" d="M 0,0 C 0.455,0 0.684,-0.236 0.684,-0.708 V -6.812 C 0.684,-7.284 0.455,-7.52 0,-7.52 h -9.253 v -25.781 c 0,-0.472 -0.236,-0.708 -0.708,-0.708 h -6.592 c -0.472,0 -0.708,0.236 -0.708,0.708 V -7.52 h -9.253 c -0.456,0 -0.683,0.236 -0.683,0.708 v 6.104 c 0,0.472 0.227,0.708 0.683,0.708 z"/>
        </g>
        <g transform="translate(862.2055,377.6118)" id="g70">
          <path id="path72" style="fill:#2859a3;fill-opacity:1;fill-rule:nonzero;stroke:none" d="m 0,0 v -6.665 h 17.163 c 0.455,0 0.684,-0.229 0.684,-0.684 v -6.103 c 0,-0.473 -0.229,-0.708 -0.684,-0.708 H -7.3 c -0.179,0 -0.342,0.069 -0.488,0.207 -0.147,0.139 -0.22,0.306 -0.22,0.501 v 32.593 c 0,0.195 0.073,0.362 0.22,0.5 0.146,0.138 0.309,0.208 0.488,0.208 h 24.341 c 0.179,0 0.342,-0.07 0.488,-0.208 0.147,-0.138 0.22,-0.305 0.22,-0.5 v -6.104 c 0,-0.195 -0.073,-0.362 -0.22,-0.501 -0.146,-0.138 -0.309,-0.207 -0.488,-0.207 H 0 V 6.494 h 14.6 c 0.471,0 0.708,-0.236 0.708,-0.708 V 0.684 C 15.308,0.228 15.071,0 14.6,0 Z"/>
        </g>
        <g transform="translate(905.101,389.6479)" id="g74">
          <path id="path76" style="fill:#2859a3;fill-opacity:1;fill-rule:nonzero;stroke:none" d="m 0,0 v -18.408 h 3.76 c 4.101,0 7.08,0.984 8.935,2.954 1.4,1.48 2.1,3.499 2.1,6.055 0,2.701 -0.684,4.817 -2.051,6.347 C 10.938,-1.018 7.991,0 3.906,0 Z m 4.053,7.812 c 5.777,0 10.376,-1.457 13.794,-4.37 3.499,-2.995 5.249,-7.292 5.249,-12.89 0,-5.534 -1.783,-9.75 -5.347,-12.647 -3.305,-2.734 -7.951,-4.101 -13.94,-4.101 H -7.3 c -0.179,0 -0.342,0.069 -0.488,0.207 -0.147,0.138 -0.22,0.305 -0.22,0.501 V 7.104 c 0,0.196 0.073,0.363 0.22,0.5 0.146,0.139 0.309,0.208 0.488,0.208 z"/>
        </g>
        <g transform="translate(359.0636,508.4045)" id="g78">
          <path id="path80" style="fill:#2859a4;fill-opacity:1;fill-rule:nonzero;stroke:none" d="m 0,0 c 0,-5.523 -2.242,-10.535 -5.869,-14.161 -3.627,-3.627 -8.639,-5.869 -14.176,-5.869 h -15.08 v -50.204 c 0,-11.076 -8.969,-20.046 -20.03,-20.046 -11.076,0 -20.045,8.97 -20.045,20.046 v 50.204 h -15.08 c -11.061,0 -20.031,8.969 -20.031,20.03 0,11.076 8.97,20.045 20.031,20.045 h 70.235 C -8.969,20.045 0,11.076 0,0"/>
        </g>
        <g transform="translate(468.2854,508.4045)" id="g82">
          <path id="path84" style="fill:#2859a4;fill-opacity:1;fill-rule:nonzero;stroke:none" d="m 0,0 v -69.658 c 0,-11.13 -8.822,-20.579 -19.953,-20.622 -5.569,-0.021 -10.61,2.225 -14.254,5.87 -3.627,3.641 -5.869,8.637 -5.869,14.176 v 1.482 c 0,6.096 -4.942,11.038 -11.039,11.038 -6.096,0 -11.038,-4.942 -11.038,-11.038 v -0.906 c 0,-11.13 -8.822,-20.58 -19.952,-20.622 -5.569,-0.021 -10.611,2.225 -14.255,5.87 -3.626,3.641 -5.869,8.637 -5.869,14.176 v 69.666 c 0,10.789 8.288,20.076 19.065,20.59 11.507,0.549 21.011,-8.62 21.011,-20.022 v -6.599 c 0,-6.096 4.942,-11.038 11.038,-11.038 6.097,0 11.039,4.942 11.039,11.038 v 6.031 c 0,10.789 8.288,20.076 19.065,20.59 C -9.504,20.571 0,11.402 0,0"/>
        </g>
        <g transform="translate(941.7725,439.0375)" id="g86">
          <path id="path88" style="fill:#2859a4;fill-opacity:1;fill-rule:nonzero;stroke:none" d="m 0,0 c -0.565,-11.798 -10.727,-20.867 -22.539,-20.867 h -69.418 c -10.597,0 -19.441,7.491 -21.497,17.48 -0.297,1.447 -0.449,2.931 -0.449,4.458 v 66.415 c 0,12.449 10.387,22.481 22.981,21.902 11.805,-0.543 20.888,-10.698 20.888,-22.517 V 38.585 c 0,-8.606 6.977,-15.583 15.583,-15.583 h 32.535 C -9.438,23.002 0.601,12.594 0,0"/>
        </g>
        <g transform="translate(582.5845,512.3489)" id="g90">
          <path id="path92" style="fill:#2859a4;fill-opacity:1;fill-rule:nonzero;stroke:none" d="m 0,0 c 0,8.892 -7.209,16.101 -16.101,16.101 h -57.707 c -19.376,0 -31.462,-17.545 -31.462,-35.225 0,-5.871 1.07,-10.996 3,-15.393 4.994,10.518 14.703,18.397 27.688,18.397 h 58.481 C -7.209,-16.12 0,-8.912 0,-0.02 Z"/>
        </g>
        <g transform="translate(582.5845,472.9424)" id="g94">
          <path id="path96" style="fill:#2859a4;fill-opacity:1;fill-rule:nonzero;stroke:none" d="m 0,0 c 0,-8.892 -7.209,-16.101 -16.101,-16.101 h -57.054 c -13.486,0 -23.165,-10.137 -23.683,-21.323 -0.08,-0.861 -0.12,-1.741 -0.12,-2.638 0,-0.956 0.053,-1.909 0.159,-2.852 -5.289,5.775 -8.471,13.682 -8.471,23.809 0,17.68 12.086,35.225 31.462,35.225 h 57.707 C -7.209,16.12 0,8.911 0,0.019 Z"/>
        </g>
        <g transform="translate(583.3126,433.6537)" id="g98">
          <path id="path100" style="fill:#2859a4;fill-opacity:1;fill-rule:nonzero;stroke:none" d="m 0,0 c 0,-8.892 -7.209,-16.101 -16.101,-16.101 h -55.435 c -0.244,0 -0.485,0.003 -0.726,0.005 -14.46,0.242 -20.17,7.707 -20.17,15.559 0,9.796 7.872,16.638 20.261,16.638 h 56.07 C -7.209,16.101 0,8.892 0,0"/>
        </g>
        <g transform="translate(645.0229,418.1247)" id="g102">
          <path id="path104" style="fill:#2859a4;fill-opacity:1;fill-rule:nonzero;stroke:none" d="m 0,0 h -34.455 c -10.621,0 -19.231,8.61 -19.231,19.232 v 71.861 c 0,10.622 8.61,19.232 19.231,19.232 H 0 c 29.691,0 53.759,-24.069 53.759,-53.759 V 53.759 C 53.759,24.069 29.691,0 0,0"/>
        </g>
        <g transform="translate(743.5214,519.6124)" id="g106">
          <path id="path108" style="fill:#2859a4;fill-opacity:1;fill-rule:nonzero;stroke:none" d="M 0,0 C 6.803,11.783 23.811,11.783 30.614,0 L 51.84,-36.764 73.066,-73.528 c 6.803,-11.784 -1.701,-26.513 -15.308,-26.513 H 15.307 -27.144 c -13.607,0 -22.111,14.729 -15.308,26.513 l 21.226,36.764 z"/>
        </g>
        <path id="path110" style="fill:#2859a4;fill-opacity:1;fill-rule:nonzero;stroke:none" d="M 1190.551,0 H 0 v 297.959 h 1190.551 z"/>
        <g transform="translate(288.7431,659.3201)" id="g112">
          <path id="path114" style="fill:#100f0d;fill-opacity:1;fill-rule:nonzero;stroke:none" d="m 0,0 -3.369,-7.935 h 6.763 z m 16.992,-19.336 c 0.098,-0.195 0.086,-0.387 -0.036,-0.574 -0.123,-0.187 -0.297,-0.28 -0.525,-0.28 H 9.448 c -0.472,0 -0.805,0.219 -1.001,0.659 L 6.25,-14.429 H -6.104 l -2.197,-5.102 c -0.146,-0.44 -0.48,-0.659 -1.001,-0.659 h -6.958 c -0.228,0 -0.403,0.093 -0.525,0.28 -0.122,0.187 -0.134,0.379 -0.036,0.574 l 15.014,32.544 c 0.342,0.765 0.928,1.147 1.758,1.147 0.798,0 1.359,-0.366 1.685,-1.098 z"/>
        </g>
        <g transform="translate(330.3203,665.6677)" id="g116">
          <path id="path118" style="fill:#100f0d;fill-opacity:1;fill-rule:nonzero;stroke:none" d="m 0,0 v -9.082 h 7.056 c 1.806,0 3.125,0.496 3.955,1.489 0.602,0.684 0.903,1.668 0.903,2.954 C 11.914,-1.547 10.343,0 7.202,0 Z m 7.959,7.471 c 3.727,0 6.657,-1.067 8.789,-3.199 2.165,-2.165 3.247,-5.151 3.247,-8.959 0,-3.777 -1.115,-6.707 -3.345,-8.79 -2.181,-2.035 -5.143,-3.051 -8.886,-3.051 H 0 v -9.302 c 0,-0.473 -0.236,-0.708 -0.708,-0.708 H -7.3 c -0.472,0 -0.708,0.235 -0.708,0.708 V 6.763 c 0,0.471 0.236,0.708 0.708,0.708 z"/>
        </g>
        <g transform="translate(375.2666,665.6677)" id="g120">
          <path id="path122" style="fill:#100f0d;fill-opacity:1;fill-rule:nonzero;stroke:none" d="m 0,0 v -9.082 h 7.056 c 1.806,0 3.125,0.496 3.955,1.489 0.602,0.684 0.903,1.668 0.903,2.954 C 11.914,-1.547 10.343,0 7.202,0 Z m 7.959,7.471 c 3.727,0 6.657,-1.067 8.789,-3.199 2.165,-2.165 3.247,-5.151 3.247,-8.959 0,-3.777 -1.115,-6.707 -3.345,-8.79 -2.181,-2.035 -5.143,-3.051 -8.886,-3.051 H 0 v -9.302 c 0,-0.473 -0.236,-0.708 -0.708,-0.708 H -7.3 c -0.472,0 -0.708,0.235 -0.708,0.708 V 6.763 c 0,0.471 0.236,0.708 0.708,0.708 z"/>
        </g>
        <g transform="translate(440.4033,639.1296)" id="g124">
          <path id="path126" style="fill:#100f0d;fill-opacity:1;fill-rule:nonzero;stroke:none" d="m 0,0 c -0.472,0 -0.708,0.235 -0.708,0.708 v 32.593 c 0,0.471 0.236,0.708 0.708,0.708 h 6.592 c 0.472,0 0.708,-0.237 0.708,-0.708 V 0.708 C 7.3,0.235 7.064,0 6.592,0 Z"/>
        </g>
        <g transform="translate(473.1425,657.6843)" id="g128">
          <path id="path130" style="fill:#100f0d;fill-opacity:1;fill-rule:nonzero;stroke:none" d="m 0,0 v -17.847 c 0,-0.472 -0.236,-0.708 -0.708,-0.708 H -7.3 c -0.472,0 -0.708,0.236 -0.708,0.708 v 31.836 c 0,0.57 0.269,1.001 0.806,1.294 0.211,0.098 0.472,0.13 0.781,0.098 0.309,-0.033 0.57,-0.147 0.781,-0.342 L 14.6,-3.149 v 17.895 c 0,0.472 0.235,0.708 0.708,0.708 h 6.591 c 0.473,0 0.708,-0.236 0.708,-0.708 v -31.909 c 0,-0.586 -0.268,-1.001 -0.805,-1.245 -0.537,-0.293 -1.05,-0.229 -1.538,0.195 z"/>
        </g>
        <g transform="translate(521.287,665.3259)" id="g132">
          <path id="path134" style="fill:#100f0d;fill-opacity:1;fill-rule:nonzero;stroke:none" d="m 0,0 v -18.408 h 3.76 c 4.101,0 7.08,0.984 8.935,2.954 1.4,1.48 2.1,3.499 2.1,6.055 0,2.701 -0.684,4.817 -2.051,6.347 C 10.938,-1.018 7.992,0 3.906,0 Z m 4.053,7.812 c 5.778,0 10.376,-1.457 13.794,-4.37 3.499,-2.995 5.249,-7.292 5.249,-12.89 0,-5.534 -1.783,-9.75 -5.347,-12.647 -3.304,-2.734 -7.951,-4.101 -13.94,-4.101 H -7.3 c -0.179,0 -0.342,0.069 -0.488,0.207 -0.147,0.138 -0.22,0.305 -0.22,0.501 V 7.104 c 0,0.196 0.073,0.363 0.22,0.5 0.146,0.139 0.309,0.208 0.488,0.208 z"/>
        </g>
        <g transform="translate(561.9365,639.1296)" id="g136">
          <path id="path138" style="fill:#100f0d;fill-opacity:1;fill-rule:nonzero;stroke:none" d="m 0,0 c -0.472,0 -0.708,0.235 -0.708,0.708 v 32.593 c 0,0.471 0.236,0.708 0.708,0.708 h 6.592 c 0.472,0 0.708,-0.237 0.708,-0.708 V 0.708 C 7.3,0.235 7.064,0 6.592,0 Z"/>
        </g>
        <g transform="translate(602.5375,659.3201)" id="g140">
          <path id="path142" style="fill:#100f0d;fill-opacity:1;fill-rule:nonzero;stroke:none" d="m 0,0 -3.37,-7.935 h 6.764 z m 16.992,-19.336 c 0.098,-0.195 0.085,-0.387 -0.037,-0.574 -0.122,-0.187 -0.297,-0.28 -0.524,-0.28 H 9.448 c -0.472,0 -0.805,0.219 -1.001,0.659 L 6.25,-14.429 H -6.104 l -2.197,-5.102 c -0.147,-0.44 -0.48,-0.659 -1.001,-0.659 h -6.958 c -0.228,0 -0.403,0.093 -0.525,0.28 -0.122,0.187 -0.134,0.379 -0.037,0.574 l 15.015,32.544 c 0.342,0.765 0.928,1.147 1.758,1.147 0.797,0 1.359,-0.366 1.685,-1.098 z"/>
        </g>
        <g transform="translate(671.6049,646.6248)" id="g144">
          <path id="path146" style="fill:#100f0d;fill-opacity:1;fill-rule:nonzero;stroke:none" d="m 0,0 h 15.747 c 0.472,0 0.708,-0.229 0.708,-0.684 v -6.103 c 0,-0.473 -0.236,-0.708 -0.708,-0.708 H -7.3 c -0.179,0 -0.342,0.069 -0.488,0.207 -0.147,0.139 -0.22,0.306 -0.22,0.501 v 32.593 c 0,0.195 0.073,0.362 0.22,0.5 0.146,0.138 0.309,0.208 0.488,0.208 h 6.592 C -0.236,26.514 0,26.277 0,25.806 Z"/>
        </g>
        <g transform="translate(705.7358,639.1296)" id="g148">
          <path id="path150" style="fill:#100f0d;fill-opacity:1;fill-rule:nonzero;stroke:none" d="m 0,0 c -0.473,0 -0.708,0.235 -0.708,0.708 v 32.593 c 0,0.471 0.235,0.708 0.708,0.708 h 6.592 c 0.471,0 0.708,-0.237 0.708,-0.708 V 0.708 C 7.3,0.235 7.063,0 6.592,0 Z"/>
        </g>
        <g transform="translate(760.3745,639.1296)" id="g152">
          <path id="path154" style="fill:#100f0d;fill-opacity:1;fill-rule:nonzero;stroke:none" d="m 0,0 c -0.473,0 -0.708,0.235 -0.708,0.708 v 17.749 l -9.229,-8.35 c -0.341,-0.341 -0.765,-0.512 -1.269,-0.512 -0.473,0 -0.888,0.154 -1.245,0.464 l -9.741,8.545 V 0.708 C -22.192,0.235 -22.429,0 -22.9,0 h -6.348 c -0.439,0 -0.659,0.235 -0.659,0.708 v 31.836 c 0,0.65 0.268,1.123 0.805,1.416 0.553,0.244 1.075,0.154 1.563,-0.269 L -11.304,18.994 4.614,33.789 c 0.472,0.423 0.985,0.513 1.538,0.269 0.57,-0.31 0.855,-0.782 0.855,-1.416 V 0.708 C 7.007,0.235 6.787,0 6.348,0 Z"/>
        </g>
        <g transform="translate(785.5698,639.1296)" id="g156">
          <path id="path158" style="fill:#100f0d;fill-opacity:1;fill-rule:nonzero;stroke:none" d="m 0,0 c -0.473,0 -0.708,0.235 -0.708,0.708 v 32.593 c 0,0.471 0.235,0.708 0.708,0.708 h 6.592 c 0.471,0 0.708,-0.237 0.708,-0.708 V 0.708 C 7.3,0.235 7.063,0 6.592,0 Z"/>
        </g>
        <g transform="translate(836.7661,673.1384)" id="g160">
          <path id="path162" style="fill:#100f0d;fill-opacity:1;fill-rule:nonzero;stroke:none" d="M 0,0 C 0.455,0 0.684,-0.236 0.684,-0.708 V -6.812 C 0.684,-7.284 0.455,-7.52 0,-7.52 h -9.253 v -25.781 c 0,-0.472 -0.236,-0.708 -0.708,-0.708 h -6.592 c -0.472,0 -0.708,0.236 -0.708,0.708 V -7.52 h -9.253 c -0.456,0 -0.683,0.236 -0.683,0.708 v 6.104 c 0,0.472 0.227,0.708 0.683,0.708 z"/>
        </g>
        <g transform="translate(862.2055,653.2898)" id="g164">
          <path id="path166" style="fill:#100f0d;fill-opacity:1;fill-rule:nonzero;stroke:none" d="m 0,0 v -6.665 h 17.163 c 0.455,0 0.684,-0.229 0.684,-0.684 v -6.103 c 0,-0.473 -0.229,-0.708 -0.684,-0.708 H -7.3 c -0.179,0 -0.342,0.069 -0.488,0.207 -0.147,0.139 -0.22,0.306 -0.22,0.501 v 32.593 c 0,0.195 0.073,0.362 0.22,0.5 0.146,0.138 0.309,0.208 0.488,0.208 h 24.341 c 0.179,0 0.342,-0.07 0.488,-0.208 0.147,-0.138 0.22,-0.305 0.22,-0.5 v -6.104 c 0,-0.195 -0.073,-0.362 -0.22,-0.501 -0.146,-0.138 -0.309,-0.207 -0.488,-0.207 H 0 V 6.494 h 14.6 c 0.471,0 0.708,-0.236 0.708,-0.708 V 0.684 C 15.308,0.228 15.071,0 14.6,0 Z"/>
        </g>
        <g transform="translate(905.101,665.3259)" id="g168">
          <path id="path170" style="fill:#100f0d;fill-opacity:1;fill-rule:nonzero;stroke:none" d="m 0,0 v -18.408 h 3.76 c 4.101,0 7.08,0.984 8.935,2.954 1.4,1.48 2.1,3.499 2.1,6.055 0,2.701 -0.684,4.817 -2.051,6.347 C 10.938,-1.018 7.991,0 3.906,0 Z m 4.053,7.812 c 5.777,0 10.376,-1.457 13.794,-4.37 3.499,-2.995 5.249,-7.292 5.249,-12.89 0,-5.534 -1.783,-9.75 -5.347,-12.647 -3.305,-2.734 -7.951,-4.101 -13.94,-4.101 H -7.3 c -0.179,0 -0.342,0.069 -0.488,0.207 -0.147,0.138 -0.22,0.305 -0.22,0.501 V 7.104 c 0,0.196 0.073,0.363 0.22,0.5 0.146,0.139 0.309,0.208 0.488,0.208 z"/>
        </g>
        <g transform="translate(359.0636,784.0826)" id="g172">
          <path id="path174" style="fill:#100f0d;fill-opacity:1;fill-rule:nonzero;stroke:none" d="m 0,0 c 0,-5.523 -2.242,-10.535 -5.869,-14.161 -3.627,-3.627 -8.639,-5.869 -14.176,-5.869 h -15.08 v -50.204 c 0,-11.076 -8.969,-20.046 -20.03,-20.046 -11.076,0 -20.045,8.97 -20.045,20.046 v 50.204 h -15.08 c -11.061,0 -20.031,8.969 -20.031,20.03 0,11.076 8.97,20.045 20.031,20.045 h 70.235 C -8.969,20.045 0,11.076 0,0"/>
        </g>
        <g transform="translate(468.2854,784.0826)" id="g176">
          <path id="path178" style="fill:#100f0d;fill-opacity:1;fill-rule:nonzero;stroke:none" d="m 0,0 v -69.658 c 0,-11.13 -8.822,-20.579 -19.953,-20.622 -5.569,-0.021 -10.61,2.225 -14.254,5.869 -3.627,3.642 -5.869,8.638 -5.869,14.177 v 1.482 c 0,6.096 -4.942,11.038 -11.039,11.038 -6.096,0 -11.038,-4.942 -11.038,-11.038 v -0.906 c 0,-11.13 -8.822,-20.58 -19.952,-20.622 -5.569,-0.021 -10.611,2.225 -14.255,5.869 -3.626,3.642 -5.869,8.638 -5.869,14.177 v 69.666 c 0,10.789 8.288,20.076 19.065,20.59 11.507,0.549 21.011,-8.62 21.011,-20.022 v -6.599 c 0,-6.096 4.942,-11.038 11.038,-11.038 6.097,0 11.039,4.942 11.039,11.038 v 6.031 c 0,10.789 8.288,20.076 19.065,20.59 C -9.504,20.571 0,11.402 0,0"/>
        </g>
        <g transform="translate(941.7725,714.7155)" id="g180">
          <path id="path182" style="fill:#100f0d;fill-opacity:1;fill-rule:nonzero;stroke:none" d="m 0,0 c -0.565,-11.798 -10.727,-20.867 -22.539,-20.867 h -69.418 c -10.597,0 -19.441,7.491 -21.497,17.48 -0.297,1.447 -0.449,2.931 -0.449,4.458 v 66.415 c 0,12.449 10.387,22.481 22.981,21.902 11.805,-0.543 20.888,-10.698 20.888,-22.517 V 38.585 c 0,-8.606 6.977,-15.583 15.583,-15.583 h 32.535 C -9.438,23.002 0.601,12.594 0,0"/>
        </g>
        <g transform="translate(582.5845,788.0269)" id="g184">
          <path id="path186" style="fill:#100f0d;fill-opacity:1;fill-rule:nonzero;stroke:none" d="m 0,0 c 0,8.892 -7.209,16.101 -16.101,16.101 h -57.707 c -19.376,0 -31.462,-17.545 -31.462,-35.225 0,-5.871 1.07,-10.996 3,-15.393 4.994,10.518 14.703,18.397 27.688,18.397 h 58.481 C -7.209,-16.12 0,-8.912 0,-0.02 Z"/>
        </g>
        <g transform="translate(582.5845,748.6204)" id="g188">
          <path id="path190" style="fill:#100f0d;fill-opacity:1;fill-rule:nonzero;stroke:none" d="m 0,0 c 0,-8.892 -7.209,-16.101 -16.101,-16.101 h -57.054 c -13.486,0 -23.165,-10.137 -23.683,-21.323 -0.08,-0.861 -0.12,-1.741 -0.12,-2.638 0,-0.956 0.053,-1.909 0.159,-2.852 -5.289,5.775 -8.471,13.682 -8.471,23.809 0,17.68 12.086,35.225 31.462,35.225 h 57.707 C -7.209,16.12 0,8.911 0,0.019 Z"/>
        </g>
        <g transform="translate(583.3126,709.3317)" id="g192">
          <path id="path194" style="fill:#100f0d;fill-opacity:1;fill-rule:nonzero;stroke:none" d="m 0,0 c 0,-8.893 -7.209,-16.101 -16.101,-16.101 h -55.435 c -0.244,0 -0.485,0.003 -0.726,0.005 -14.46,0.242 -20.17,7.707 -20.17,15.559 0,9.796 7.872,16.638 20.261,16.638 h 56.07 C -7.209,16.101 0,8.892 0,0"/>
        </g>
        <g transform="translate(645.0229,693.8027)" id="g196">
          <path id="path198" style="fill:#100f0d;fill-opacity:1;fill-rule:nonzero;stroke:none" d="m 0,0 h -34.455 c -10.621,0 -19.231,8.61 -19.231,19.232 v 71.861 c 0,10.622 8.61,19.232 19.231,19.232 H 0 c 29.691,0 53.759,-24.069 53.759,-53.759 V 53.759 C 53.759,24.069 29.691,0 0,0"/>
        </g>
        <g transform="translate(743.5214,795.2904)" id="g200">
          <path id="path202" style="fill:#100f0d;fill-opacity:1;fill-rule:nonzero;stroke:none" d="M 0,0 C 6.803,11.783 23.811,11.783 30.614,0 L 51.84,-36.764 73.066,-73.528 c 6.803,-11.784 -1.701,-26.513 -15.308,-26.513 H 15.307 -27.144 c -13.607,0 -22.111,14.729 -15.308,26.513 l 21.226,36.764 z"/>
        </g>
        <g transform="translate(288.7431,82.6333)" id="g204">
          <path id="path206" style="fill:#ffffff;fill-opacity:1;fill-rule:nonzero;stroke:none" d="m 0,0 -3.369,-7.935 h 6.763 z m 16.992,-19.336 c 0.098,-0.195 0.086,-0.387 -0.036,-0.574 -0.123,-0.187 -0.297,-0.28 -0.525,-0.28 H 9.448 c -0.472,0 -0.805,0.219 -1.001,0.659 L 6.25,-14.429 H -6.104 l -2.197,-5.102 c -0.146,-0.44 -0.48,-0.659 -1.001,-0.659 h -6.958 c -0.228,0 -0.403,0.093 -0.525,0.28 -0.122,0.187 -0.134,0.379 -0.036,0.574 l 15.014,32.544 c 0.342,0.765 0.928,1.147 1.758,1.147 0.798,0 1.359,-0.366 1.685,-1.098 z"/>
        </g>
        <g transform="translate(330.3203,88.981)" id="g208">
          <path id="path210" style="fill:#ffffff;fill-opacity:1;fill-rule:nonzero;stroke:none" d="m 0,0 v -9.082 h 7.056 c 1.806,0 3.125,0.496 3.955,1.489 0.602,0.684 0.903,1.668 0.903,2.954 C 11.914,-1.547 10.343,0 7.202,0 Z m 7.959,7.471 c 3.727,0 6.657,-1.067 8.789,-3.199 2.165,-2.165 3.247,-5.151 3.247,-8.959 0,-3.777 -1.115,-6.707 -3.345,-8.79 -2.181,-2.035 -5.143,-3.051 -8.886,-3.051 H 0 v -9.302 c 0,-0.473 -0.236,-0.708 -0.708,-0.708 H -7.3 c -0.472,0 -0.708,0.235 -0.708,0.708 V 6.763 c 0,0.471 0.236,0.708 0.708,0.708 z"/>
        </g>
        <g transform="translate(375.2666,88.981)" id="g212">
          <path id="path214" style="fill:#ffffff;fill-opacity:1;fill-rule:nonzero;stroke:none" d="m 0,0 v -9.082 h 7.056 c 1.806,0 3.125,0.496 3.955,1.489 0.602,0.684 0.903,1.668 0.903,2.954 C 11.914,-1.547 10.343,0 7.202,0 Z m 7.959,7.471 c 3.727,0 6.657,-1.067 8.789,-3.199 2.165,-2.165 3.247,-5.151 3.247,-8.959 0,-3.777 -1.115,-6.707 -3.345,-8.79 -2.181,-2.035 -5.143,-3.051 -8.886,-3.051 H 0 v -9.302 c 0,-0.473 -0.236,-0.708 -0.708,-0.708 H -7.3 c -0.472,0 -0.708,0.235 -0.708,0.708 V 6.763 c 0,0.471 0.236,0.708 0.708,0.708 z"/>
        </g>
        <g transform="translate(440.4033,62.4429)" id="g216">
          <path id="path218" style="fill:#ffffff;fill-opacity:1;fill-rule:nonzero;stroke:none" d="m 0,0 c -0.472,0 -0.708,0.235 -0.708,0.708 v 32.593 c 0,0.471 0.236,0.708 0.708,0.708 h 6.592 c 0.472,0 0.708,-0.237 0.708,-0.708 V 0.708 C 7.3,0.235 7.064,0 6.592,0 Z"/>
        </g>
        <g transform="translate(473.1425,80.9976)" id="g220">
          <path id="path222" style="fill:#ffffff;fill-opacity:1;fill-rule:nonzero;stroke:none" d="m 0,0 v -17.847 c 0,-0.472 -0.236,-0.708 -0.708,-0.708 H -7.3 c -0.472,0 -0.708,0.236 -0.708,0.708 v 31.836 c 0,0.57 0.269,1.001 0.806,1.294 0.211,0.098 0.472,0.13 0.781,0.098 0.309,-0.033 0.57,-0.147 0.781,-0.342 L 14.6,-3.149 v 17.895 c 0,0.472 0.235,0.708 0.708,0.708 h 6.591 c 0.473,0 0.708,-0.236 0.708,-0.708 v -31.909 c 0,-0.586 -0.268,-1.001 -0.805,-1.245 -0.537,-0.293 -1.05,-0.229 -1.538,0.195 z"/>
        </g>
        <g transform="translate(521.287,88.6392)" id="g224">
          <path id="path226" style="fill:#ffffff;fill-opacity:1;fill-rule:nonzero;stroke:none" d="m 0,0 v -18.408 h 3.76 c 4.101,0 7.08,0.984 8.935,2.954 1.4,1.48 2.1,3.499 2.1,6.055 0,2.701 -0.684,4.817 -2.051,6.347 C 10.938,-1.018 7.992,0 3.906,0 Z m 4.053,7.812 c 5.778,0 10.376,-1.457 13.794,-4.37 3.499,-2.995 5.249,-7.292 5.249,-12.89 0,-5.534 -1.783,-9.75 -5.347,-12.647 -3.304,-2.734 -7.951,-4.101 -13.94,-4.101 H -7.3 c -0.179,0 -0.342,0.069 -0.488,0.207 -0.147,0.138 -0.22,0.305 -0.22,0.501 V 7.104 c 0,0.196 0.073,0.363 0.22,0.5 0.146,0.139 0.309,0.208 0.488,0.208 z"/>
        </g>
        <g transform="translate(561.9365,62.4429)" id="g228">
          <path id="path230" style="fill:#ffffff;fill-opacity:1;fill-rule:nonzero;stroke:none" d="m 0,0 c -0.472,0 -0.708,0.235 -0.708,0.708 v 32.593 c 0,0.471 0.236,0.708 0.708,0.708 h 6.592 c 0.472,0 0.708,-0.237 0.708,-0.708 V 0.708 C 7.3,0.235 7.064,0 6.592,0 Z"/>
        </g>
        <g transform="translate(602.5375,82.6333)" id="g232">
          <path id="path234" style="fill:#ffffff;fill-opacity:1;fill-rule:nonzero;stroke:none" d="m 0,0 -3.37,-7.935 h 6.764 z m 16.992,-19.336 c 0.098,-0.195 0.085,-0.387 -0.037,-0.574 -0.122,-0.187 -0.297,-0.28 -0.524,-0.28 H 9.448 c -0.472,0 -0.805,0.219 -1.001,0.659 L 6.25,-14.429 H -6.104 l -2.197,-5.102 c -0.147,-0.44 -0.48,-0.659 -1.001,-0.659 h -6.958 c -0.228,0 -0.403,0.093 -0.525,0.28 -0.122,0.187 -0.134,0.379 -0.037,0.574 l 15.015,32.544 c 0.342,0.765 0.928,1.147 1.758,1.147 0.797,0 1.359,-0.366 1.685,-1.098 z"/>
        </g>
        <g transform="translate(671.6049,69.938)" id="g236">
          <path id="path238" style="fill:#ffffff;fill-opacity:1;fill-rule:nonzero;stroke:none" d="m 0,0 h 15.747 c 0.472,0 0.708,-0.229 0.708,-0.684 v -6.103 c 0,-0.473 -0.236,-0.708 -0.708,-0.708 H -7.3 c -0.179,0 -0.342,0.069 -0.488,0.207 -0.147,0.139 -0.22,0.306 -0.22,0.501 v 32.593 c 0,0.195 0.073,0.362 0.22,0.5 0.146,0.138 0.309,0.208 0.488,0.208 h 6.592 C -0.236,26.514 0,26.277 0,25.806 Z"/>
        </g>
        <g transform="translate(705.7358,62.4429)" id="g240">
          <path id="path242" style="fill:#ffffff;fill-opacity:1;fill-rule:nonzero;stroke:none" d="m 0,0 c -0.473,0 -0.708,0.235 -0.708,0.708 v 32.593 c 0,0.471 0.235,0.708 0.708,0.708 h 6.592 c 0.471,0 0.708,-0.237 0.708,-0.708 V 0.708 C 7.3,0.235 7.063,0 6.592,0 Z"/>
        </g>
        <g transform="translate(760.3745,62.4429)" id="g244">
          <path id="path246" style="fill:#ffffff;fill-opacity:1;fill-rule:nonzero;stroke:none" d="m 0,0 c -0.473,0 -0.708,0.235 -0.708,0.708 v 17.749 l -9.229,-8.35 c -0.341,-0.341 -0.765,-0.512 -1.269,-0.512 -0.473,0 -0.888,0.154 -1.245,0.464 l -9.741,8.545 V 0.708 C -22.192,0.235 -22.429,0 -22.9,0 h -6.348 c -0.439,0 -0.659,0.235 -0.659,0.708 v 31.836 c 0,0.65 0.268,1.123 0.805,1.416 0.553,0.244 1.075,0.154 1.563,-0.269 L -11.304,18.994 4.614,33.789 c 0.472,0.423 0.985,0.513 1.538,0.269 0.57,-0.31 0.855,-0.782 0.855,-1.416 V 0.708 C 7.007,0.235 6.787,0 6.348,0 Z"/>
        </g>
        <g transform="translate(785.5698,62.4429)" id="g248">
          <path id="path250" style="fill:#ffffff;fill-opacity:1;fill-rule:nonzero;stroke:none" d="m 0,0 c -0.473,0 -0.708,0.235 -0.708,0.708 v 32.593 c 0,0.471 0.235,0.708 0.708,0.708 h 6.592 c 0.471,0 0.708,-0.237 0.708,-0.708 V 0.708 C 7.3,0.235 7.063,0 6.592,0 Z"/>
        </g>
        <g transform="translate(836.7661,96.4517)" id="g252">
          <path id="path254" style="fill:#ffffff;fill-opacity:1;fill-rule:nonzero;stroke:none" d="M 0,0 C 0.455,0 0.684,-0.236 0.684,-0.708 V -6.812 C 0.684,-7.284 0.455,-7.52 0,-7.52 h -9.253 v -25.781 c 0,-0.472 -0.236,-0.708 -0.708,-0.708 h -6.592 c -0.472,0 -0.708,0.236 -0.708,0.708 V -7.52 h -9.253 c -0.456,0 -0.683,0.236 -0.683,0.708 v 6.104 c 0,0.472 0.227,0.708 0.683,0.708 z"/>
        </g>
        <g transform="translate(862.2055,76.603)" id="g256">
          <path id="path258" style="fill:#ffffff;fill-opacity:1;fill-rule:nonzero;stroke:none" d="m 0,0 v -6.665 h 17.163 c 0.455,0 0.684,-0.229 0.684,-0.684 v -6.103 c 0,-0.473 -0.229,-0.708 -0.684,-0.708 H -7.3 c -0.179,0 -0.342,0.069 -0.488,0.207 -0.147,0.139 -0.22,0.306 -0.22,0.501 v 32.593 c 0,0.195 0.073,0.362 0.22,0.5 0.146,0.138 0.309,0.208 0.488,0.208 h 24.341 c 0.179,0 0.342,-0.07 0.488,-0.208 0.147,-0.138 0.22,-0.305 0.22,-0.5 v -6.104 c 0,-0.195 -0.073,-0.362 -0.22,-0.501 -0.146,-0.138 -0.309,-0.207 -0.488,-0.207 H 0 V 6.494 h 14.6 c 0.471,0 0.708,-0.236 0.708,-0.708 V 0.684 C 15.308,0.228 15.071,0 14.6,0 Z"/>
        </g>
        <g transform="translate(905.101,88.6392)" id="g260">
          <path id="path262" style="fill:#ffffff;fill-opacity:1;fill-rule:nonzero;stroke:none" d="m 0,0 v -18.408 h 3.76 c 4.101,0 7.08,0.984 8.935,2.954 1.4,1.48 2.1,3.499 2.1,6.055 0,2.701 -0.684,4.817 -2.051,6.347 C 10.938,-1.018 7.991,0 3.906,0 Z m 4.053,7.812 c 5.777,0 10.376,-1.457 13.794,-4.37 3.499,-2.995 5.249,-7.292 5.249,-12.89 0,-5.534 -1.783,-9.75 -5.347,-12.647 -3.305,-2.734 -7.951,-4.101 -13.94,-4.101 H -7.3 c -0.179,0 -0.342,0.069 -0.488,0.207 -0.147,0.138 -0.22,0.305 -0.22,0.501 V 7.104 c 0,0.196 0.073,0.363 0.22,0.5 0.146,0.139 0.309,0.208 0.488,0.208 z"/>
        </g>
        <g transform="translate(359.0636,207.3958)" id="g264">
          <path id="path266" style="fill:#ffffff;fill-opacity:1;fill-rule:nonzero;stroke:none" d="m 0,0 c 0,-5.523 -2.242,-10.535 -5.869,-14.161 -3.627,-3.627 -8.639,-5.869 -14.176,-5.869 h -15.08 v -50.204 c 0,-11.076 -8.969,-20.046 -20.03,-20.046 -11.076,0 -20.045,8.97 -20.045,20.046 v 50.204 h -15.08 c -11.061,0 -20.031,8.969 -20.031,20.03 0,11.076 8.97,20.045 20.031,20.045 h 70.235 C -8.969,20.045 0,11.076 0,0"/>
        </g>
        <g transform="translate(468.2854,207.3958)" id="g268">
          <path id="path270" style="fill:#ffffff;fill-opacity:1;fill-rule:nonzero;stroke:none" d="m 0,0 v -69.658 c 0,-11.13 -8.822,-20.579 -19.953,-20.622 -5.569,-0.021 -10.61,2.225 -14.254,5.87 -3.627,3.641 -5.869,8.637 -5.869,14.176 v 1.482 c 0,6.096 -4.942,11.038 -11.039,11.038 -6.096,0 -11.038,-4.942 -11.038,-11.038 v -0.906 c 0,-11.13 -8.822,-20.58 -19.952,-20.622 -5.569,-0.021 -10.611,2.225 -14.255,5.87 -3.626,3.641 -5.869,8.637 -5.869,14.176 v 69.666 c 0,10.789 8.288,20.076 19.065,20.59 11.507,0.549 21.011,-8.62 21.011,-20.022 v -6.599 c 0,-6.096 4.942,-11.038 11.038,-11.038 6.097,0 11.039,4.942 11.039,11.038 v 6.031 c 0,10.789 8.288,20.076 19.065,20.59 C -9.504,20.571 0,11.402 0,0"/>
        </g>
        <g transform="translate(941.7725,138.0288)" id="g272">
          <path id="path274" style="fill:#ffffff;fill-opacity:1;fill-rule:nonzero;stroke:none" d="m 0,0 c -0.565,-11.798 -10.727,-20.867 -22.539,-20.867 h -69.418 c -10.597,0 -19.441,7.491 -21.497,17.48 -0.297,1.447 -0.449,2.931 -0.449,4.458 v 66.415 c 0,12.449 10.387,22.481 22.981,21.902 11.805,-0.543 20.888,-10.698 20.888,-22.517 V 38.585 c 0,-8.606 6.977,-15.583 15.583,-15.583 h 32.535 C -9.438,23.002 0.601,12.594 0,0"/>
        </g>
        <g transform="translate(582.5845,211.3401)" id="g276">
          <path id="path278" style="fill:#ffffff;fill-opacity:1;fill-rule:nonzero;stroke:none" d="m 0,0 c 0,8.892 -7.209,16.101 -16.101,16.101 h -57.707 c -19.376,0 -31.462,-17.545 -31.462,-35.225 0,-5.871 1.07,-10.997 3,-15.393 4.994,10.518 14.703,18.397 27.688,18.397 h 58.481 C -7.209,-16.12 0,-8.912 0,-0.02 Z"/>
        </g>
        <g transform="translate(582.5845,171.9336)" id="g280">
          <path id="path282" style="fill:#ffffff;fill-opacity:1;fill-rule:nonzero;stroke:none" d="m 0,0 c 0,-8.892 -7.209,-16.101 -16.101,-16.101 h -57.054 c -13.486,0 -23.165,-10.137 -23.683,-21.323 -0.08,-0.861 -0.12,-1.741 -0.12,-2.638 0,-0.956 0.053,-1.909 0.159,-2.852 -5.289,5.775 -8.471,13.682 -8.471,23.809 0,17.68 12.086,35.225 31.462,35.225 h 57.707 C -7.209,16.12 0,8.911 0,0.019 Z"/>
        </g>
        <g transform="translate(583.3126,132.6449)" id="g284">
          <path id="path286" style="fill:#ffffff;fill-opacity:1;fill-rule:nonzero;stroke:none" d="m 0,0 c 0,-8.892 -7.209,-16.101 -16.101,-16.101 h -55.435 c -0.244,0 -0.485,0.003 -0.726,0.005 -14.46,0.242 -20.17,7.707 -20.17,15.559 0,9.796 7.872,16.638 20.261,16.638 h 56.07 C -7.209,16.101 0,8.892 0,0"/>
        </g>
        <g transform="translate(645.0229,117.116)" id="g288">
          <path id="path290" style="fill:#ffffff;fill-opacity:1;fill-rule:nonzero;stroke:none" d="m 0,0 h -34.455 c -10.621,0 -19.231,8.61 -19.231,19.232 v 71.861 c 0,10.622 8.61,19.232 19.231,19.232 H 0 c 29.691,0 53.759,-24.069 53.759,-53.759 V 53.759 C 53.759,24.069 29.691,0 0,0"/>
        </g>
        <g transform="translate(743.5214,218.6037)" id="g292">
          <path id="path294" style="fill:#ffffff;fill-opacity:1;fill-rule:nonzero;stroke:none" d="M 0,0 C 6.803,11.783 23.811,11.783 30.614,0 L 51.84,-36.764 73.066,-73.528 c 6.803,-11.784 -1.701,-26.513 -15.308,-26.513 H 15.307 -27.144 c -13.607,0 -22.111,14.729 -15.308,26.513 l 21.226,36.764 z"/>
        </g>
      </g>
    </g>
  </g>
</svg>