<svg width="23" height="23" viewBox="0 0 23 23" fill="none" xmlns="http://www.w3.org/2000/svg">
<rect width="22.3172" height="22.3172" rx="11.1586" fill="white"/>
<path d="M10.8887 12.5C11.7171 12.5 12.3887 11.8284 12.3887 11C12.3887 10.1716 11.7171 9.5 10.8887 9.5C10.0602 9.5 9.38867 10.1716 9.38867 11C9.38867 11.8284 10.0602 12.5 10.8887 12.5Z" stroke="#0654A5" stroke-linecap="round" stroke-linejoin="round"/>
<path d="M10.8887 7C9.82781 7 8.81039 7.42143 8.06024 8.17157C7.3101 8.92172 6.88867 9.93913 6.88867 11C6.88867 11.946 7.08967 12.565 7.63867 13.25L10.8887 17L14.1387 13.25C14.6877 12.565 14.8887 11.946 14.8887 11C14.8887 9.93913 14.4672 8.92172 13.7171 8.17157C12.967 7.42143 11.9495 7 10.8887 7Z" stroke="#0654A5" stroke-linecap="round" stroke-linejoin="round"/>
</svg>
