<svg width="104" height="96" viewBox="0 0 104 96" fill="none" xmlns="http://www.w3.org/2000/svg">
<rect x="16" y="8" width="80" height="80" rx="40" fill="#DCFCE7"/>
<path d="M53.9 54.9L64.475 44.325L62.375 42.225L53.9 50.7L49.625 46.425L47.525 48.525L53.9 54.9ZM56 63C53.925 63 51.975 62.6063 50.15 61.8188C48.325 61.0312 46.7375 59.9625 45.3875 58.6125C44.0375 57.2625 42.9688 55.675 42.1812 53.85C41.3937 52.025 41 50.075 41 48C41 45.925 41.3937 43.975 42.1812 42.15C42.9688 40.325 44.0375 38.7375 45.3875 37.3875C46.7375 36.0375 48.325 34.9688 50.15 34.1812C51.975 33.3937 53.925 33 56 33C58.075 33 60.025 33.3937 61.85 34.1812C63.675 34.9688 65.2625 36.0375 66.6125 37.3875C67.9625 38.7375 69.0312 40.325 69.8188 42.15C70.6063 43.975 71 45.925 71 48C71 50.075 70.6063 52.025 69.8188 53.85C69.0312 55.675 67.9625 57.2625 66.6125 58.6125C65.2625 59.9625 63.675 61.0312 61.85 61.8188C60.025 62.6063 58.075 63 56 63Z" fill="#16A34A"/>
<rect opacity="0.5" x="88" width="16" height="16" rx="8" fill="#60A5FA"/>
<rect opacity="0.5" y="40" width="12" height="12" rx="6" fill="#FB923C"/>
<rect opacity="0.5" x="72" y="88" width="8" height="8" rx="4" fill="#4ADE80"/>
</svg>
