<svg width="22" height="22" viewBox="0 0 22 22" fill="none" xmlns="http://www.w3.org/2000/svg">
<path d="M18.3636 8.64286C18.3636 6.7674 17.5878 4.96875 16.2069 3.6426C14.8259 2.31645 12.953 1.57143 11 1.57143C9.04704 1.57143 7.17407 2.31645 5.79312 3.6426C4.41217 4.96875 3.63636 6.7674 3.63636 8.64286C3.63636 11.5437 6.05327 15.3246 11 19.8534C15.9467 15.3246 18.3636 11.5437 18.3636 8.64286ZM11 22C4.99945 16.7624 2 12.309 2 8.64286C2 6.35063 2.94821 4.15228 4.63604 2.53143C6.32387 0.910584 8.61305 0 11 0C13.3869 0 15.6761 0.910584 17.364 2.53143C19.0518 4.15228 20 6.35063 20 8.64286C20 12.309 17.0005 16.7624 11 22Z" fill="#6DB2FF"/>
<path d="M11 9.63636C11.4168 9.63636 11.8165 9.47354 12.1112 9.18371C12.4059 8.89388 12.5714 8.50079 12.5714 8.09091C12.5714 7.68103 12.4059 7.28794 12.1112 6.99811C11.8165 6.70828 11.4168 6.54545 11 6.54545C10.5832 6.54545 10.1835 6.70828 9.88883 6.99811C9.59413 7.28794 9.42857 7.68103 9.42857 8.09091C9.42857 8.50079 9.59413 8.89388 9.88883 9.18371C10.1835 9.47354 10.5832 9.63636 11 9.63636ZM11 11.1818C10.1665 11.1818 9.36706 10.8562 8.77766 10.2765C8.18826 9.69685 7.85714 8.91067 7.85714 8.09091C7.85714 7.27115 8.18826 6.48496 8.77766 5.90531C9.36706 5.32565 10.1665 5 11 5C11.8335 5 12.6329 5.32565 13.2223 5.90531C13.8117 6.48496 14.1429 7.27115 14.1429 8.09091C14.1429 8.91067 13.8117 9.69685 13.2223 10.2765C12.6329 10.8562 11.8335 11.1818 11 11.1818ZM19.4857 15.8182L22 22H14.9286V20.4545H7.07143V22H0L2.51429 15.8182H19.4857ZM17.7933 15.8182H4.20671L2.321 20.4545H19.679L17.7933 15.8182Z" fill="#6DB2FF"/>
</svg>
