<svg width="23" height="23" viewBox="0 0 23 23" fill="none" xmlns="http://www.w3.org/2000/svg">
<rect width="22.4722" height="22.4722" rx="11.2361" fill="white"/>
<path d="M15.069 13.852C15.3927 14.0111 15.6603 14.2349 15.8717 14.5233C16.0832 14.8118 16.2169 15.1367 16.2731 15.498H15.728C15.6917 15.309 15.624 15.1333 15.5249 14.9709C15.4258 14.8084 15.3052 14.6692 15.1632 14.5532C15.0211 14.4371 14.8609 14.3443 14.6825 14.2747C14.5041 14.2051 14.3191 14.1719 14.1275 14.1752C13.9326 14.1752 13.7476 14.2084 13.5726 14.2747C13.3975 14.341 13.2373 14.4322 13.0919 14.5482C12.9466 14.6642 12.826 14.8051 12.7302 14.9709C12.6344 15.1367 12.5667 15.3124 12.527 15.498H11.982C12.0348 15.14 12.167 14.8167 12.3784 14.5283C12.5898 14.2399 12.859 14.0145 13.1861 13.852C12.9978 13.7028 12.8524 13.5222 12.75 13.31C12.6476 13.0978 12.5947 12.8724 12.5914 12.6337C12.5914 12.4845 12.6113 12.3403 12.6509 12.201C12.6905 12.0618 12.75 11.9309 12.8293 11.8082C12.9086 11.6855 13.0027 11.5761 13.1117 11.48C13.2207 11.3839 13.343 11.3026 13.4784 11.2363C13.3892 11.107 13.2868 10.9927 13.1712 10.8932C13.0556 10.7937 12.93 10.7059 12.7946 10.6296C12.6592 10.5534 12.5171 10.4987 12.3685 10.4655C12.2198 10.4324 12.0662 10.4125 11.9076 10.4059C11.6434 10.4059 11.3907 10.4573 11.1495 10.56C10.9084 10.6628 10.6986 10.8136 10.5202 11.0126C10.5995 11.228 10.6391 11.4502 10.6391 11.6789C10.6391 11.9839 10.5714 12.2707 10.436 12.5392C10.3005 12.8077 10.1106 13.0332 9.86613 13.2155C10.0809 13.3249 10.2741 13.4592 10.4459 13.6183C10.6177 13.7774 10.7663 13.9564 10.8918 14.1554C11.0174 14.3543 11.1115 14.5664 11.1743 14.7919C11.237 15.0173 11.2701 15.2527 11.2734 15.498H10.6391C10.6391 15.2361 10.5896 14.9891 10.4905 14.7571C10.3914 14.525 10.2559 14.3228 10.0842 14.1504C9.91238 13.978 9.70922 13.8404 9.47467 13.7376C9.24013 13.6349 8.99403 13.5851 8.73636 13.5885C8.47209 13.5885 8.22598 13.6382 7.99805 13.7376C7.77011 13.8371 7.56861 13.973 7.39352 14.1454C7.21844 14.3178 7.08135 14.5217 6.98225 14.7571C6.88315 14.9924 6.8336 15.2394 6.8336 15.498H6.19934C6.19934 15.256 6.23237 15.0223 6.29844 14.7968C6.36451 14.5714 6.45866 14.3592 6.58088 14.1603C6.70311 13.9614 6.85011 13.7824 7.02189 13.6233C7.19367 13.4641 7.38857 13.3282 7.60659 13.2155C7.36214 13.0332 7.1722 12.8077 7.03676 12.5392C6.90132 12.2707 6.8336 11.9839 6.8336 11.6789C6.8336 11.417 6.88315 11.17 6.98225 10.938C7.08135 10.7059 7.21679 10.5037 7.38857 10.3313C7.56035 10.1589 7.76186 10.0213 7.99309 9.91854C8.22433 9.81576 8.47209 9.76604 8.73636 9.76935C9.01715 9.76935 9.28308 9.82903 9.53414 9.94837C9.7852 10.0677 10.0032 10.2335 10.1882 10.4457C10.2741 10.3628 10.3666 10.2882 10.4657 10.2219C10.5648 10.1556 10.6689 10.0926 10.7779 10.0329C10.5334 9.85057 10.3435 9.62514 10.208 9.35661C10.0726 9.08808 10.0049 8.80131 10.0049 8.49632C10.0049 8.23442 10.0544 7.98743 10.1535 7.75537C10.2526 7.52331 10.3881 7.32108 10.5598 7.14869C10.7316 6.9763 10.9331 6.83872 11.1644 6.73595C11.3956 6.63318 11.6434 6.58345 11.9076 6.58676C12.1686 6.58676 12.4147 6.63649 12.646 6.73595C12.8772 6.8354 13.0787 6.97133 13.2505 7.14372C13.4223 7.31611 13.5593 7.51999 13.6617 7.75537C13.7642 7.99075 13.8137 8.23773 13.8104 8.49632C13.8104 8.80131 13.7427 9.08808 13.6072 9.35661C13.4718 9.62514 13.2819 9.85057 13.0374 10.0329C13.2686 10.1556 13.4768 10.3048 13.6617 10.4805C13.8467 10.6562 14.0037 10.8601 14.1325 11.0921C14.3439 11.0921 14.5421 11.1319 14.7271 11.2115C14.9121 11.291 15.0756 11.4021 15.2177 11.5446C15.3597 11.6872 15.4687 11.8496 15.5447 12.032C15.6207 12.2143 15.6603 12.4149 15.6636 12.6337C15.6636 12.8724 15.6124 13.0978 15.51 13.31C15.4076 13.5222 15.2606 13.7028 15.069 13.852ZM8.73636 12.9519C8.91144 12.9519 9.07496 12.9188 9.22692 12.8525C9.37888 12.7862 9.51432 12.695 9.63324 12.579C9.75216 12.4629 9.843 12.3287 9.90577 12.1762C9.96853 12.0237 10.0016 11.8579 10.0049 11.6789C10.0049 11.5032 9.97184 11.3391 9.90577 11.1866C9.8397 11.0341 9.74886 10.8982 9.63324 10.7788C9.51762 10.6595 9.38383 10.5683 9.23187 10.5053C9.07992 10.4423 8.91475 10.4092 8.73636 10.4059C8.56128 10.4059 8.39776 10.439 8.24581 10.5053C8.09385 10.5716 7.95841 10.6628 7.83949 10.7788C7.72056 10.8949 7.62972 11.0291 7.56695 11.1816C7.50419 11.3341 7.47115 11.4999 7.46785 11.6789C7.46785 11.8546 7.50089 12.0187 7.56695 12.1712C7.63302 12.3237 7.72387 12.4596 7.83949 12.579C7.9551 12.6983 8.08889 12.7895 8.24085 12.8525C8.39281 12.9155 8.55798 12.9486 8.73636 12.9519ZM10.6391 8.49632C10.6391 8.67202 10.6722 8.83612 10.7382 8.98862C10.8043 9.14112 10.8951 9.27705 11.0108 9.39639C11.1264 9.51574 11.2602 9.60691 11.4121 9.6699C11.5641 9.73288 11.7293 9.76604 11.9076 9.76935C12.0827 9.76935 12.2462 9.7362 12.3982 9.6699C12.5502 9.60359 12.6856 9.51242 12.8045 9.39639C12.9234 9.28036 13.0143 9.1461 13.077 8.9936C13.1398 8.8411 13.1728 8.67534 13.1761 8.49632C13.1761 8.32061 13.1431 8.15651 13.077 8.00401C13.011 7.85151 12.9201 7.71559 12.8045 7.59624C12.6889 7.47689 12.5551 7.38573 12.4031 7.32274C12.2512 7.25975 12.086 7.2266 11.9076 7.22328C11.7326 7.22328 11.569 7.25643 11.4171 7.32274C11.2651 7.38904 11.1297 7.48021 11.0108 7.59624C10.8918 7.71227 10.801 7.84654 10.7382 7.99904C10.6755 8.15154 10.6424 8.3173 10.6391 8.49632ZM14.1275 11.6292C13.9888 11.6292 13.86 11.6557 13.741 11.7087C13.6221 11.7618 13.5164 11.8331 13.4239 11.9226C13.3314 12.0121 13.2587 12.1182 13.2059 12.2408C13.153 12.3635 13.1266 12.4944 13.1266 12.6337C13.1266 12.7729 13.153 12.9022 13.2059 13.0216C13.2587 13.1409 13.3298 13.247 13.4189 13.3398C13.5081 13.4326 13.6139 13.5056 13.7361 13.5586C13.8583 13.6117 13.9888 13.6382 14.1275 13.6382C14.2663 13.6382 14.3951 13.6117 14.514 13.5586C14.633 13.5056 14.7387 13.4343 14.8312 13.3448C14.9237 13.2553 14.9963 13.1492 15.0492 13.0265C15.102 12.9039 15.1285 12.7729 15.1285 12.6337C15.1285 12.4944 15.102 12.3651 15.0492 12.2458C14.9963 12.1265 14.9253 12.0204 14.8361 11.9275C14.7469 11.8347 14.6412 11.7618 14.519 11.7087C14.3968 11.6557 14.2663 11.6292 14.1275 11.6292Z" fill="#0654A5" stroke="#0654A5" stroke-width="0.232471"/>
</svg>
