<svg width="23" height="23" viewBox="0 0 23 23" fill="none" xmlns="http://www.w3.org/2000/svg">
<rect width="22.4722" height="22.4722" rx="11.2361" fill="white"/>
<path d="M14.0011 15.11V14.6314C14.0011 14.1236 13.771 13.6367 13.3614 13.2777C12.9519 12.9186 12.3964 12.7169 11.8172 12.7169H7.99556C7.41637 12.7169 6.86091 12.9186 6.45136 13.2777C6.04182 13.6367 5.81174 14.1236 5.81174 14.6314V15.11M13.7281 10.8025C14.3073 10.8025 14.8627 10.6007 15.2723 10.2417C15.6818 9.88268 15.9119 9.39573 15.9119 8.88798C15.9119 8.38023 15.6818 7.89328 15.2723 7.53425C14.8627 7.17521 14.3073 6.97351 13.7281 6.97351M17.8228 15.11V14.6314C17.8228 14.1236 17.5927 13.6367 17.1831 13.2777C16.7736 12.9186 16.2181 12.7169 15.6389 12.7169M12.0902 8.88798C12.0902 9.39573 11.8601 9.88268 11.4506 10.2417C11.0411 10.6007 10.4856 10.8025 9.9064 10.8025C9.32722 10.8025 8.77175 10.6007 8.36221 10.2417C7.95266 9.88268 7.72258 9.39573 7.72258 8.88798C7.72258 8.38023 7.95266 7.89328 8.36221 7.53425C8.77175 7.17521 9.32722 6.97351 9.9064 6.97351C10.4856 6.97351 11.0411 7.17521 11.4506 7.53425C11.8601 7.89328 12.0902 8.38023 12.0902 8.88798Z" stroke="#0654A5" stroke-width="0.929885" stroke-linecap="square"/>
</svg>
