<svg width="25" height="20" viewBox="0 0 25 20" fill="none" xmlns="http://www.w3.org/2000/svg">
<path d="M15.6634 13.9329L16.0605 13.5412L15.1384 12.6213L14.7414 13.013L15.6634 13.9329ZM17.3939 13.3771L19.0593 14.2754L19.6838 13.1357L18.0184 12.2374L17.3939 13.3771ZM19.3799 16.0606L18.1415 17.2822L19.0635 18.2021L20.3019 16.9805L19.3799 16.0606ZM17.387 17.6755C16.123 17.7924 12.853 17.6882 9.31254 14.1956L8.39056 15.1156C12.2541 18.9269 15.9314 19.113 17.5083 18.9672L17.387 17.6755ZM9.31254 14.1956C5.93773 10.8665 5.3787 8.06641 5.30911 6.85165L4.00362 6.92526C4.09119 8.45416 4.78341 11.5572 8.39056 15.1156L9.31254 14.1956ZM10.5114 8.85062L10.7615 8.60398L9.83951 7.68407L9.58949 7.9307L10.5114 8.85062ZM10.9605 5.46007L9.86126 4.00332L8.8145 4.78077L9.9137 6.23753L10.9605 5.46007ZM6.16423 3.68625L4.79596 5.03601L5.71794 5.95593L7.08621 4.60617L6.16423 3.68625ZM10.0505 8.39066C9.58949 7.9307 9.58887 7.93132 9.58824 7.93194C9.58803 7.93215 9.5874 7.93278 9.58697 7.9332C9.58612 7.93406 9.58525 7.93492 9.58437 7.93581C9.5826 7.9376 9.58077 7.93946 9.57888 7.9414C9.57511 7.94528 9.57112 7.94949 9.56692 7.95402C9.5585 7.96307 9.54927 7.97343 9.53939 7.98514C9.51962 8.00853 9.49723 8.03734 9.47369 8.0718C9.42651 8.1409 9.37509 8.23225 9.33146 8.34714C9.24243 8.58155 9.1947 8.89057 9.25454 9.27322C9.37156 10.0216 9.89103 11.0101 11.2217 12.3227L12.1437 11.4028C10.8984 10.1743 10.6018 9.42677 10.5467 9.07434C10.5204 8.90662 10.5476 8.82407 10.5551 8.80453C10.5597 8.79244 10.5618 8.7912 10.5563 8.79946C10.5535 8.8035 10.5488 8.80982 10.5416 8.81834C10.538 8.8226 10.5338 8.82743 10.5288 8.83281C10.5263 8.8355 10.5236 8.83833 10.5207 8.84129C10.5193 8.84278 10.5178 8.84429 10.5162 8.84585C10.5155 8.84663 10.5147 8.84742 10.5139 8.84821C10.5135 8.84861 10.5129 8.84922 10.5127 8.84941C10.5121 8.85002 10.5114 8.85062 10.0505 8.39066ZM11.2217 12.3227C12.5529 13.6358 13.5539 14.1469 14.3094 14.2619C14.6955 14.3206 15.0068 14.2737 15.2429 14.1865C15.3587 14.1437 15.4509 14.0932 15.5207 14.0469C15.5555 14.0237 15.5847 14.0017 15.6083 13.9822C15.6201 13.9725 15.6306 13.9634 15.6398 13.9551C15.6444 13.951 15.6487 13.9471 15.6526 13.9434C15.6546 13.9415 15.6564 13.9396 15.6582 13.9379C15.6591 13.937 15.66 13.9362 15.6609 13.9353C15.6613 13.9349 15.662 13.9343 15.6622 13.9341C15.6628 13.9335 15.6634 13.9329 15.2024 13.4729C14.7414 13.013 14.742 13.0124 14.7427 13.0117C14.7428 13.0116 14.7434 13.011 14.7439 13.0105C14.7447 13.0098 14.7454 13.009 14.7462 13.0082C14.7479 13.0067 14.7494 13.0053 14.7509 13.0038C14.7539 13.0009 14.7568 12.9983 14.7595 12.9958C14.7649 12.991 14.7698 12.9868 14.7741 12.9833C14.7827 12.9762 14.789 12.9717 14.793 12.969C14.8011 12.9637 14.7994 12.9661 14.7865 12.9708C14.7652 12.9787 14.6796 13.0058 14.5077 12.9796C14.1474 12.9248 13.3886 12.6308 12.1437 11.4028L11.2217 12.3227ZM9.86126 4.00332C8.9727 2.82575 7.22542 2.63942 6.16423 3.68625L7.08621 4.60617C7.54969 4.14895 8.37285 4.19549 8.8145 4.78077L9.86126 4.00332ZM5.30911 6.85165C5.29196 6.55232 5.43034 6.23964 5.71794 5.95593L4.79596 5.03601C4.32756 5.49807 3.95932 6.15216 4.00362 6.92526L5.30911 6.85165ZM18.1415 17.2822C17.902 17.5186 17.6452 17.6517 17.387 17.6755L17.5083 18.9672C18.1487 18.9079 18.6734 18.587 19.0635 18.2021L18.1415 17.2822ZM10.7615 8.60398C11.6197 7.75736 11.6835 6.41823 10.9605 5.46007L9.9137 6.23753C10.2654 6.70366 10.2131 7.31549 9.83951 7.68407L10.7615 8.60398ZM19.0593 14.2754C19.7722 14.6599 19.8833 15.564 19.3799 16.0606L20.3019 16.9805C21.4703 15.828 21.11 13.9048 19.6838 13.1357L19.0593 14.2754ZM16.0605 13.5412C16.3952 13.211 16.934 13.1292 17.3939 13.3771L18.0184 12.2374C17.0738 11.728 15.9015 11.8687 15.1384 12.6213L16.0605 13.5412Z" fill="#777587"/>
<path d="M11.2217 12.3227C12.5529 13.6358 13.5539 14.1469 14.3094 14.2619C14.6955 14.3206 15.0068 14.2737 15.2429 14.1865C15.3587 14.1437 15.4509 14.0932 15.5207 14.0469C15.5555 14.0237 15.5847 14.0017 15.6083 13.9822C15.6201 13.9725 15.6306 13.9634 15.6398 13.9551C15.6444 13.951 15.6487 13.9471 15.6526 13.9434C15.6546 13.9415 15.6564 13.9396 15.6582 13.9379C15.6591 13.937 15.66 13.9362 15.6609 13.9353C15.6613 13.9349 15.662 13.9343 15.6622 13.9341C15.6628 13.9335 15.6634 13.9329 15.2024 13.4729L14.7414 13.013M15.2024 13.4729C14.7414 13.013 14.742 13.0124 14.7427 13.0117C14.7428 13.0116 14.7434 13.011 14.7439 13.0105C14.7447 13.0098 14.7454 13.009 14.7462 13.0082C14.7479 13.0067 14.7494 13.0053 14.7509 13.0038C14.7539 13.0009 14.7568 12.9983 14.7595 12.9958C14.7649 12.991 14.7698 12.9868 14.7741 12.9833C14.7827 12.9762 14.789 12.9717 14.793 12.969C14.8011 12.9637 14.7994 12.9661 14.7865 12.9708C14.7652 12.9787 14.6796 13.0058 14.5077 12.9796C14.1474 12.9248 13.3886 12.6308 12.1437 11.4028M16.0605 13.5412L15.6634 13.9329L14.7414 13.013L15.1384 12.6213C15.9015 11.8687 17.0738 11.728 18.0184 12.2374M15.5995 13.0813L16.0605 13.5412M16.0605 13.5412L15.1384 12.6213M16.0605 13.5412C16.3952 13.211 16.934 13.1292 17.3939 13.3771M17.7061 12.8073L17.3939 13.3771M17.3939 13.3771L19.0593 14.2754M17.3939 13.3771L18.0184 12.2374M19.3716 13.7055L19.0593 14.2754M19.0593 14.2754L19.6838 13.1357M19.0593 14.2754C19.7722 14.6599 19.8833 15.564 19.3799 16.0606M19.8409 16.5206L20.3019 16.9805M19.6838 13.1357C21.11 13.9048 21.4703 15.828 20.3019 16.9805L19.0635 18.2021M20.3019 16.9805L19.3799 16.0606M18.6025 17.7421L18.1415 17.2822M17.387 17.6755C17.6452 17.6517 17.902 17.5186 18.1415 17.2822L19.3799 16.0606M18.1415 17.2822L19.0635 18.2021M17.4476 18.3213L17.5083 18.9672M19.0635 18.2021C18.6734 18.587 18.1487 18.9079 17.5083 18.9672C15.9314 19.113 12.2541 18.9269 8.39056 15.1156M17.5083 18.9672L17.387 17.6755M8.85155 14.6557L9.31254 14.1956M5.30911 6.85165C5.3787 8.06641 5.93773 10.8665 9.31254 14.1956C12.853 17.6882 16.123 17.7924 17.387 17.6755M9.31254 14.1956L8.39056 15.1156M4.65636 6.88846L4.00362 6.92526M4.00362 6.92526L5.30911 6.85165M4.00362 6.92526C4.09119 8.45416 4.78341 11.5572 8.39056 15.1156M6.16423 3.68625L4.79596 5.03601C4.32756 5.49807 3.95932 6.15216 4.00362 6.92526M10.3005 8.14402L10.7615 8.60398M10.7615 8.60398L10.5114 8.85062L9.58949 7.9307L9.83951 7.68407M10.7615 8.60398L9.83951 7.68407M10.7615 8.60398C11.6197 7.75736 11.6835 6.41823 10.9605 5.46007M10.4371 5.8488L10.9605 5.46007M6.16423 3.68625C7.22542 2.63942 8.9727 2.82575 9.86126 4.00332L10.9605 5.46007M10.9605 5.46007L9.9137 6.23753M9.33788 4.39205L8.8145 4.78077M8.8145 4.78077L9.86126 4.00332M9.83951 7.68407C10.2131 7.31549 10.2654 6.70366 9.9137 6.23753L8.8145 4.78077M5.30911 6.85165C5.29196 6.55232 5.43034 6.23964 5.71794 5.95593L7.08621 4.60617C7.54969 4.14895 8.37285 4.19549 8.8145 4.78077M6.62522 4.14621L7.08621 4.60617M7.08621 4.60617L6.16423 3.68625M5.25695 5.49597L4.79596 5.03601M4.79596 5.03601L5.71794 5.95593M11.6827 11.8627L12.1437 11.4028M12.1437 11.4028L11.2217 12.3227M12.1437 11.4028C10.8984 10.1743 10.6018 9.42677 10.5467 9.07434C10.5204 8.90662 10.5476 8.82407 10.5551 8.80453C10.5597 8.79244 10.5618 8.7912 10.5563 8.79946C10.5535 8.8035 10.5488 8.80982 10.5416 8.81834C10.538 8.8226 10.5338 8.82743 10.5288 8.83281C10.5263 8.8355 10.5236 8.83833 10.5207 8.84129C10.5193 8.84278 10.5178 8.84429 10.5162 8.84585C10.5155 8.84663 10.5147 8.84742 10.5139 8.84821C10.5135 8.84861 10.5129 8.84921 10.5127 8.84941C10.5121 8.85002 10.5114 8.85062 10.0505 8.39066C9.58949 7.9307 9.58887 7.93132 9.58824 7.93194C9.58803 7.93215 9.5874 7.93278 9.58697 7.9332C9.58612 7.93406 9.58525 7.93492 9.58437 7.93581C9.5826 7.9376 9.58077 7.93946 9.57888 7.9414C9.57511 7.94528 9.57112 7.94949 9.56692 7.95402C9.5585 7.96307 9.54927 7.97343 9.53939 7.98514C9.51962 8.00853 9.49723 8.03734 9.47369 8.0718C9.42651 8.1409 9.37509 8.23225 9.33146 8.34714C9.24243 8.58155 9.1947 8.89057 9.25454 9.27322C9.37156 10.0216 9.89103 11.0101 11.2217 12.3227M19.6838 13.1357L18.0184 12.2374" stroke="#777587" stroke-width="0.5"/>
</svg>
