<svg width="23" height="23" viewBox="0 0 23 23" fill="none" xmlns="http://www.w3.org/2000/svg">
<rect width="22.3172" height="22.3172" rx="11.1586" fill="white"/>
<path d="M11.3519 11.0423C10.7393 11.0423 10.2148 10.8242 9.77849 10.3879C9.3422 9.95159 9.12406 9.42712 9.12406 8.81446C9.12406 8.2018 9.3422 7.67733 9.77849 7.24104C10.2148 6.80475 10.7393 6.58661 11.3519 6.58661C11.9646 6.58661 12.489 6.80475 12.9253 7.24104C13.3616 7.67733 13.5798 8.2018 13.5798 8.81446C13.5798 9.42712 13.3616 9.95159 12.9253 10.3879C12.489 10.8242 11.9646 11.0423 11.3519 11.0423ZM6.89621 15.498V13.9385C6.89621 13.6229 6.97743 13.3328 7.13988 13.0683C7.30233 12.8037 7.51815 12.6018 7.78735 12.4626C8.36288 12.1748 8.94769 11.959 9.54178 11.8151C10.1359 11.6712 10.7393 11.5993 11.3519 11.5993C11.9646 11.5993 12.5679 11.6712 13.162 11.8151C13.7561 11.959 14.3409 12.1748 14.9165 12.4626C15.1857 12.6018 15.4015 12.8037 15.5639 13.0683C15.7264 13.3328 15.8076 13.6229 15.8076 13.9385V15.498H6.89621ZM8.01013 14.3841H14.6937V13.9385C14.6937 13.8364 14.6682 13.7436 14.6171 13.66C14.566 13.5765 14.4987 13.5115 14.4152 13.4651C13.9139 13.2145 13.408 13.0265 12.8975 12.9012C12.3869 12.7759 11.8717 12.7132 11.3519 12.7132C10.8321 12.7132 10.3169 12.7759 9.80634 12.9012C9.29579 13.0265 8.78988 13.2145 8.28862 13.4651C8.20507 13.5115 8.13777 13.5765 8.08672 13.66C8.03566 13.7436 8.01013 13.8364 8.01013 13.9385V14.3841ZM11.3519 9.92838C11.6582 9.92838 11.9205 9.81931 12.1386 9.60117C12.3568 9.38302 12.4658 9.12079 12.4658 8.81446C12.4658 8.50813 12.3568 8.24589 12.1386 8.02775C11.9205 7.80961 11.6582 7.70053 11.3519 7.70053C11.0456 7.70053 10.7833 7.80961 10.5652 8.02775C10.3471 8.24589 10.238 8.50813 10.238 8.81446C10.238 9.12079 10.3471 9.38302 10.5652 9.60117C10.7833 9.81931 11.0456 9.92838 11.3519 9.92838Z" fill="#0654A5"/>
</svg>
