<svg width="23" height="23" viewBox="0 0 23 23" fill="none" xmlns="http://www.w3.org/2000/svg">
<rect width="22.3172" height="22.3172" rx="11.1586" fill="white"/>
<path d="M13.9221 6.04456C14.144 6.04456 14.32 6.11941 14.45 6.26912C14.5706 6.4079 14.6353 6.59283 14.6439 6.8239L14.645 6.87799V14.9749C14.645 15.2283 14.58 15.4305 14.45 15.5816C14.3293 15.722 14.169 15.7972 13.969 15.8072L13.9223 15.8084H8.39784C8.17294 15.8084 7.99549 15.7328 7.86548 15.5818C7.74493 15.4412 7.6803 15.2568 7.67158 15.0284L7.67084 14.9749V6.87799C7.67084 6.62153 7.73584 6.41851 7.86585 6.26893C7.98639 6.13015 8.14797 6.05575 8.35058 6.04573L8.39803 6.04456H13.9221ZM13.6899 6.78192H8.63021C8.54267 6.78192 8.47841 6.80327 8.43744 6.84597C8.4017 6.88346 8.38159 6.93957 8.37711 7.0143L8.37617 7.04749V14.8054C8.37617 14.8971 8.39659 14.9642 8.43744 15.0069C8.4733 15.0443 8.52698 15.0653 8.59846 15.07L8.63021 15.071H9.6333V13.7201C9.6333 13.5381 9.66953 13.4004 9.74201 13.3071L9.76256 13.2827C9.84151 13.1973 9.95919 13.151 10.1156 13.144L10.1591 13.143H12.1567C12.3378 13.143 12.4706 13.1896 12.5553 13.2827C12.6329 13.3681 12.6749 13.4977 12.6814 13.6714L12.6823 13.7201V15.071H13.6899C13.7746 15.071 13.8374 15.0496 13.8784 15.0069C13.9141 14.9694 13.9342 14.9133 13.9387 14.8386L13.9396 14.8054V7.04749C13.9396 6.95597 13.9192 6.8888 13.8784 6.84597C13.8374 6.80327 13.7746 6.78192 13.6899 6.78192ZM11.9684 13.7429H10.3474C10.2619 13.7429 10.2155 13.7839 10.2082 13.8659L10.2073 13.8894L10.2071 15.071H12.1085V13.8896C12.1085 13.7999 12.0693 13.7513 11.9908 13.7439L11.9684 13.7429ZM10.5577 11.1692C10.6688 11.1692 10.7284 11.2232 10.7365 11.3313L10.7374 11.357V12.2225C10.7374 12.3386 10.6858 12.4009 10.5824 12.4094L10.5577 12.4102H9.70353C9.59768 12.4102 9.54102 12.3562 9.53355 12.2483L9.53261 12.2225V11.357C9.53261 11.2407 9.58174 11.1784 9.67999 11.1702L9.70353 11.1692H10.5577ZM12.608 11.1692C12.7192 11.1692 12.7787 11.2232 12.7866 11.3313L12.7875 11.357V12.2225C12.7875 12.3386 12.7359 12.4009 12.6326 12.4094L12.608 12.4102H11.7581C11.6497 12.4102 11.5916 12.3562 11.5838 12.2483L11.5829 12.2225V11.357C11.5829 11.2407 11.6332 11.1784 11.734 11.1702L11.7581 11.1692H12.608ZM10.5577 9.35565C10.6688 9.35565 10.7284 9.40962 10.7365 9.51754L10.7374 9.54331V10.409C10.7374 10.5251 10.6858 10.5874 10.5824 10.5959L10.5577 10.5966H9.70353C9.59768 10.5966 9.54102 10.5427 9.53355 10.4347L9.53261 10.409V9.54331C9.53261 9.42706 9.58174 9.36483 9.67999 9.35663L9.70353 9.35565H10.5577ZM12.608 9.35565C12.7192 9.35565 12.7787 9.40962 12.7866 9.51754L12.7875 9.54331V10.409C12.7875 10.5251 12.7359 10.5874 12.6326 10.5959L12.608 10.5966H11.7581C11.6497 10.5966 11.5916 10.5427 11.5838 10.4347L11.5829 10.409V9.54331C11.5829 9.42706 11.6332 9.36483 11.734 9.35663L11.7581 9.35565H12.608ZM10.5577 7.54213C10.6688 7.54213 10.7284 7.59609 10.7365 7.70401L10.7374 7.72979V8.59544C10.7374 8.71157 10.6858 8.77386 10.5824 8.78232L10.5577 8.78311H9.70353C9.59768 8.78311 9.54102 8.72914 9.53355 8.62122L9.53261 8.59544V7.72979C9.53261 7.61353 9.58174 7.5513 9.67999 7.5431L9.70353 7.54213H10.5577ZM12.608 7.54213C12.7192 7.54213 12.7787 7.59609 12.7866 7.70401L12.7875 7.72979V8.59544C12.7875 8.71157 12.7359 8.77386 12.6326 8.78232L12.608 8.78311H11.7581C11.6497 8.78311 11.5916 8.72914 11.5838 8.62122L11.5829 8.59544V7.72979C11.5829 7.61353 11.6332 7.5513 11.734 7.5431L11.7581 7.54213H12.608Z" fill="#0654A5"/>
</svg>
