<svg width="22" height="22" viewBox="0 0 22 22" fill="none" xmlns="http://www.w3.org/2000/svg">
<path d="M18.7788 15.5019C18.1188 14.8414 17.3476 14.3023 16.5007 13.9093C17.6951 12.9416 18.4571 11.4651 18.4571 9.80921C18.4571 6.88773 16.0208 4.49095 13.0993 4.53578C10.2226 4.5806 7.90495 6.92464 7.90495 9.80921C7.90495 11.4651 8.6696 12.9416 9.86139 13.9093C9.01423 14.302 8.24303 14.8411 7.58327 15.5019C6.14362 16.9442 5.32624 18.8479 5.2735 20.8782C5.2728 20.9063 5.27774 20.9343 5.28802 20.9605C5.29831 20.9867 5.31373 21.0106 5.33339 21.0307C5.35305 21.0509 5.37654 21.0669 5.40248 21.0778C5.42842 21.0888 5.45629 21.0944 5.48444 21.0944H6.961C7.07438 21.0944 7.1693 21.0047 7.17194 20.8913C7.22204 19.362 7.84167 17.9303 8.93063 16.844C9.48788 16.2838 10.1507 15.8396 10.8807 15.5373C11.6108 15.235 12.3935 15.0804 13.1837 15.0826C14.7894 15.0826 16.3003 15.7076 17.4367 16.844C18.523 17.9303 19.1426 19.362 19.1954 20.8913C19.198 21.0047 19.2929 21.0944 19.4063 21.0944H20.8829C20.911 21.0944 20.9389 21.0888 20.9648 21.0778C20.9908 21.0669 21.0143 21.0509 21.0339 21.0307C21.0536 21.0106 21.069 20.9867 21.0793 20.9605C21.0896 20.9343 21.0945 20.9063 21.0938 20.8782C21.0411 18.8479 20.2237 16.9442 18.7788 15.5019ZM13.1837 13.1842C12.2819 13.1842 11.4329 12.8335 10.7974 12.1954C10.4785 11.8791 10.2266 11.5017 10.0567 11.0858C9.88686 10.6699 9.80249 10.2241 9.80866 9.77494C9.81657 8.91009 10.162 8.07425 10.7658 7.45462C11.3986 6.80599 12.245 6.44476 13.1494 6.43421C14.0432 6.4263 14.9107 6.77435 15.5488 7.39925C16.2027 8.03997 16.5613 8.89691 16.5613 9.80921C16.5613 10.711 16.2106 11.5574 15.5725 12.1954C15.2595 12.51 14.8872 12.7593 14.4771 12.9291C14.0671 13.0988 13.6274 13.1855 13.1837 13.1842ZM6.57868 10.5053C6.55495 10.2759 6.54177 10.0439 6.54177 9.80921C6.54177 9.38997 6.58132 8.98128 6.65514 8.58314C6.6736 8.48822 6.6235 8.39066 6.53649 8.35111C6.1779 8.19027 5.84831 7.96878 5.56354 7.68929C5.22799 7.36394 4.96395 6.97221 4.78825 6.53911C4.61256 6.10601 4.52908 5.64103 4.54313 5.17386C4.56686 4.32747 4.907 3.52327 5.50026 2.91683C6.15153 2.24974 7.02692 1.88587 7.95768 1.89642C8.7988 1.90433 9.61091 2.22865 10.2253 2.80345C10.4336 2.99857 10.6129 3.21478 10.7632 3.44681C10.8159 3.52855 10.9187 3.56283 11.0084 3.53119C11.4724 3.37035 11.9629 3.25697 12.4665 3.20423C12.6141 3.18841 12.6985 3.03021 12.6326 2.89837C11.7757 1.20296 10.0249 0.0322593 7.99987 0.000618673C5.07575 -0.0442055 2.63942 2.35257 2.63942 5.27142C2.63942 6.92728 3.40143 8.40384 4.59587 9.37152C3.75739 9.75911 2.98483 10.2944 2.31511 10.9641C0.870183 12.4064 0.0528003 14.3101 6.59338e-05 16.343C-0.00063782 16.3711 0.00429819 16.3991 0.0145833 16.4253C0.0248683 16.4515 0.0402943 16.4754 0.0599521 16.4956C0.07961 16.5157 0.103102 16.5317 0.129044 16.5427C0.154986 16.5536 0.182853 16.5592 0.211003 16.5592H1.6902C1.80358 16.5592 1.8985 16.4696 1.90114 16.3562C1.95124 14.8269 2.57087 13.3952 3.65983 12.3088C4.43503 11.5336 5.38425 10.9957 6.42048 10.7347C6.52331 10.7083 6.59186 10.6108 6.57868 10.5053Z" fill="#6DB2FF"/>
</svg>
