<svg width="22" height="20" viewBox="0 0 22 20" fill="none" xmlns="http://www.w3.org/2000/svg">
<path d="M3.71623 13.8505H0.612186C0.275348 13.8505 8.39233e-05 14.1222 8.39233e-05 14.4627V19.1821C8.39233e-05 19.5189 0.271706 19.7942 0.612186 19.7942H3.71623C4.05307 19.7942 4.32833 19.5226 4.32833 19.1821V14.4627C4.32838 14.1222 4.05671 13.8505 3.71623 13.8505ZM1.22434 18.57V15.0712H3.10418V18.57H1.22434Z" fill="#6DB2FF"/>
<path d="M9.6092 9.23611H6.50516C6.16832 9.23611 5.89306 9.50774 5.89306 9.84822V19.1821C5.89306 19.5189 6.16468 19.7942 6.50516 19.7942H9.6092C9.94604 19.7942 10.2213 19.5225 10.2213 19.1821V9.84457C10.2213 9.50774 9.94968 9.23611 9.6092 9.23611ZM7.1209 18.57V10.4567H9.00074V18.57H7.1209Z" fill="#6DB2FF"/>
<path d="M15.4987 4.6217H12.3946C12.0578 4.6217 11.7825 4.89333 11.7825 5.23381V19.1821C11.7825 19.5189 12.0542 19.7942 12.3946 19.7942H15.4987C15.8355 19.7942 16.1108 19.5226 16.1108 19.1821V5.23022C16.1072 4.89338 15.8355 4.6217 15.4987 4.6217ZM14.8866 18.57H13.0068V5.84232H14.8866V18.57Z" fill="#6DB2FF"/>
<path d="M21.3879 3.05176e-05H18.2839C17.947 3.05176e-05 17.6718 0.271652 17.6718 0.612132V19.1748C17.6718 19.5116 17.9434 19.7869 18.2839 19.7869H21.3879C21.7247 19.7869 22 19.5152 22 19.1748V0.615774C21.9964 0.278936 21.7247 3.05176e-05 21.3879 3.05176e-05ZM20.7758 18.57H18.896V1.22793H20.7758V18.57Z" fill="#6DB2FF"/>
</svg>
