<svg width="216" height="53" viewBox="0 0 216 53" fill="none" xmlns="http://www.w3.org/2000/svg">
<path d="M6.27974 12.5672H11.0076V28.3057C11.0076 31.7795 13.8198 34.5918 17.2936 34.5918C20.7673 34.5918 23.5733 31.7795 23.5733 28.3057V12.5672H28.3011C30.038 12.5672 31.6087 11.8649 32.7468 10.7269C33.8849 9.5888 34.5872 8.01808 34.5872 6.28747C34.584 2.81371 31.7718 0.00146484 28.3011 0.00146484H6.27974C2.81224 0.00146484 0 2.81371 0 6.28747C0 9.76124 2.81224 12.5672 6.27974 12.5672Z" fill="#005D9D"/>
<path d="M42.7731 34.5914C46.2626 34.5789 49.0278 31.6162 49.0278 28.1267V27.8414C49.0278 25.929 50.5766 24.3802 52.489 24.3802C54.4015 24.3802 55.9502 25.929 55.9502 27.8414V28.3054C55.9502 30.0423 56.6525 31.6068 57.7906 32.7511C58.9318 33.8923 60.515 34.5977 62.2582 34.5914C65.7476 34.5789 68.5128 31.6162 68.5128 28.1267V6.28715C68.5128 2.71306 65.5344 -0.161888 61.9259 0.0105457C58.5461 0.170439 55.9471 3.08301 55.9471 6.46585V8.35636C55.9471 10.2688 54.3983 11.8176 52.4859 11.8176C50.5734 11.8176 49.0246 10.2688 49.0246 8.35636V6.28715C49.0246 2.71306 46.0462 -0.161888 42.4377 0.0105457C39.058 0.170439 36.462 3.08301 36.462 6.46585V28.3086C36.462 30.0454 37.1643 31.6099 38.3024 32.7542C39.4436 33.8954 41.0268 34.6008 42.77 34.5946L42.7731 34.5914Z" fill="#005D9D"/>
<path d="M208.52 20.8219H198.321C195.622 20.8219 193.437 18.6335 193.437 15.9373V7.0679C193.437 3.36214 190.59 0.179943 186.887 0.00750853C182.94 -0.174331 179.683 2.97024 179.683 6.87352V27.6942C179.683 28.1738 179.73 28.6378 179.824 29.0924C180.47 32.2245 183.241 34.5727 186.564 34.5727H208.329C212.031 34.5727 215.217 31.7291 215.395 28.0296C215.583 24.0825 212.436 20.8187 208.523 20.8187L208.52 20.8219Z" fill="#005D9D"/>
<path d="M80.9656 10.1027H99.3C102.087 10.1027 104.348 7.84227 104.348 5.05511V5.04884C104.348 2.26168 102.087 0.0012207 99.3 0.0012207H81.207C75.131 0.0012207 71.3438 5.50344 71.3438 11.0464C71.3438 12.8868 71.6792 14.4951 72.2843 15.8714C73.8487 12.5732 76.893 10.1027 80.9656 10.1027Z" fill="#005D9D"/>
<path d="M73.9492 29.9639C73.9492 29.6818 73.9617 29.4059 73.9868 29.1363C74.1498 25.628 77.1847 22.4521 81.4109 22.4521H99.297C102.084 22.4521 104.345 20.1916 104.345 17.4045V17.3982C104.345 14.611 102.084 12.3506 99.297 12.3506H81.2039C75.128 12.3506 71.3407 17.8528 71.3407 23.3958C71.3407 26.5717 72.3377 29.0485 73.9962 30.8606C73.9617 30.5659 73.946 30.2649 73.946 29.9671L73.9492 29.9639Z" fill="#005D9D"/>
<path d="M99.5289 24.675H81.95C78.0655 24.675 75.5981 26.8195 75.5981 29.892C75.5981 32.3531 77.3883 34.695 81.9218 34.7703C81.997 34.7703 82.0723 34.7703 82.1506 34.7703H99.5289C102.316 34.7703 104.576 32.5098 104.576 29.7227C104.576 26.9355 102.316 24.675 99.5289 24.675Z" fill="#005D9D"/>
<path d="M140.778 17.7369V16.8559C140.778 7.54756 133.232 0.0012207 123.924 0.0012207H113.123C109.793 0.0012207 107.094 2.7006 107.094 6.03015V28.5594C107.094 31.889 109.793 34.5884 113.123 34.5884H123.924C133.232 34.5884 140.778 27.042 140.778 17.7337V17.7369Z" fill="#005D9D"/>
<path d="M145.666 34.1368H172.284C176.551 34.1368 179.215 29.5187 177.084 25.8255L170.428 14.3007L163.772 2.77578C161.64 -0.917447 156.307 -0.917447 154.175 2.77578L147.519 14.3007L140.863 25.8255C138.731 29.5187 141.396 34.1368 145.663 34.1368H145.666Z" fill="#005D9D"/>
<path d="M98.4317 45.2949H0V46.4361H98.4317V45.2949Z" fill="#005D9D"/>
<path d="M110.756 40.7051C109.721 39.8084 108.276 39.3569 106.423 39.3569H103.247C103.109 39.3569 103.04 39.4259 103.04 39.5639V49.8127C103.04 49.9507 103.109 50.0196 103.247 50.0196H106.364C108.21 50.0196 109.662 49.5901 110.718 48.7342C111.841 47.8219 112.402 46.4988 112.402 44.7682C112.402 43.0376 111.853 41.6581 110.756 40.7051ZM109.768 47.0569C109.06 47.8187 107.944 48.1981 106.423 48.1981H104.922V41.1628H106.483C107.963 41.1628 109.057 41.561 109.765 42.3573C110.295 42.9686 110.562 43.7681 110.562 44.7526C110.562 45.737 110.295 46.4738 109.765 47.0569H109.768Z" fill="#005D9D"/>
<path d="M115.841 38.8303C115.546 38.8303 115.292 38.9338 115.086 39.1376C114.879 39.3414 114.775 39.5953 114.775 39.8963C114.775 40.1973 114.879 40.4355 115.089 40.6393C115.299 40.8431 115.546 40.9466 115.838 40.9466C116.13 40.9466 116.377 40.8431 116.581 40.6393C116.785 40.4355 116.888 40.1878 116.888 39.8963C116.888 39.6047 116.788 39.3414 116.587 39.1376C116.387 38.9338 116.136 38.8303 115.841 38.8303Z" fill="#005D9D"/>
<path d="M116.575 41.793H115.105C114.967 41.793 114.898 41.8588 114.898 41.9905V49.8127C114.898 49.9507 114.967 50.0196 115.105 50.0196H116.575C116.713 50.0196 116.782 49.9507 116.782 49.8127V41.9905C116.782 41.8588 116.713 41.793 116.575 41.793Z" fill="#005D9D"/>
<path d="M126.874 41.7773H126.131C125.911 41.7773 125.717 41.8494 125.545 41.9905C125.375 42.1347 125.259 42.3134 125.203 42.5266C124.551 41.9184 123.814 41.6143 122.999 41.6143C122.453 41.6143 121.942 41.7114 121.463 41.909C120.986 42.1065 120.572 42.3792 120.218 42.7304C119.861 43.0815 119.582 43.4954 119.381 43.9656C119.18 44.439 119.08 44.9375 119.08 45.4705C119.08 46.5678 119.459 47.4896 120.221 48.2326C120.952 48.9631 121.877 49.3268 122.999 49.3268C123.827 49.3268 124.554 49.0321 125.187 48.4458V48.728C125.187 48.8847 125.153 49.0916 125.081 49.3393C125.005 49.6215 124.839 49.8692 124.592 50.0855C124.341 50.3018 124.062 50.4335 123.748 50.4805C123.055 50.584 122.422 50.562 121.851 50.4178C121.325 50.2893 120.908 50.1231 120.597 49.9193C120.522 49.8786 120.425 49.819 120.315 49.7437C120.187 49.6716 120.089 49.6936 120.024 49.8064L119.35 50.8944C119.277 50.9915 119.299 51.0793 119.412 51.1608C119.707 51.3803 120.168 51.6092 120.789 51.8506C121.576 52.1516 122.369 52.302 123.168 52.302C124.372 52.302 125.335 51.9572 126.053 51.2674C126.73 50.6341 127.071 49.7876 127.071 48.7248V41.9654C127.071 41.8337 127.006 41.7679 126.874 41.7679V41.7773ZM125.19 45.5646C125.175 46.085 124.965 46.5459 124.563 46.9503C124.165 47.3328 123.686 47.524 123.124 47.524C122.563 47.524 122.077 47.3203 121.67 46.9127C121.262 46.5208 121.058 46.0411 121.058 45.4736C121.058 44.9062 121.262 44.4422 121.67 44.0346C122.068 43.6364 122.554 43.4389 123.124 43.4389C123.695 43.4389 124.171 43.627 124.563 44.0064C124.968 44.4108 125.175 44.8686 125.19 45.3827V45.5677V45.5646Z" fill="#005D9D"/>
<path d="M131.147 41.793H129.677C129.539 41.793 129.47 41.8588 129.47 41.9905V49.8127C129.47 49.9507 129.539 50.0196 129.677 50.0196H131.147C131.285 50.0196 131.354 49.9507 131.354 49.8127V41.9905C131.354 41.8588 131.285 41.793 131.147 41.793Z" fill="#005D9D"/>
<path d="M130.413 38.8303C130.119 38.8303 129.865 38.9338 129.658 39.1376C129.451 39.3414 129.348 39.5953 129.348 39.8963C129.348 40.1973 129.451 40.4355 129.661 40.6393C129.871 40.8431 130.119 40.9466 130.41 40.9466C130.702 40.9466 130.95 40.8431 131.153 40.6393C131.357 40.4355 131.461 40.1878 131.461 39.8963C131.461 39.6047 131.36 39.3414 131.16 39.1376C130.959 38.9338 130.708 38.8303 130.413 38.8303Z" fill="#005D9D"/>
<path d="M138.653 48.358C138.612 48.2295 138.527 48.1887 138.399 48.2357C137.885 48.405 137.509 48.4144 137.273 48.2671C137.032 48.1448 136.885 47.9724 136.828 47.7467C136.765 47.5585 136.737 47.2199 136.737 46.7277V43.3449H138.621C138.759 43.3449 138.828 43.2759 138.828 43.138V41.9748C138.828 41.8431 138.759 41.7773 138.621 41.7773H136.737V40.031C136.737 39.8993 136.671 39.8335 136.54 39.8335H135.063C134.925 39.8335 134.856 39.8993 134.856 40.031V41.7773H133.762C133.624 41.7773 133.555 41.8431 133.555 41.9748V43.138C133.555 43.2759 133.624 43.3449 133.762 43.3449H134.856V46.7277C134.856 47.4363 134.925 48.0257 135.063 48.496C135.232 49.0634 135.549 49.4898 136.019 49.7814C136.464 50.051 137.023 50.1764 137.697 50.1576C138.089 50.1482 138.502 50.0761 138.938 49.9444C139.067 49.9131 139.107 49.8284 139.06 49.6905L138.656 48.358H138.653Z" fill="#005D9D"/>
<path d="M144.688 41.6613C143.914 41.6613 143.18 41.8181 142.49 42.1347C142.092 42.3229 141.728 42.5831 141.396 42.9154C141.349 42.9969 141.34 43.0722 141.365 43.138L141.769 44.1413C141.8 44.204 141.844 44.2416 141.907 44.2604C141.97 44.2792 142.026 44.2698 142.083 44.2322C142.098 44.2165 142.145 44.1789 142.224 44.1162C142.302 44.0535 142.365 44.0033 142.412 43.9626C142.55 43.856 142.706 43.7682 142.879 43.7023C143.308 43.4923 143.857 43.3888 144.525 43.3888C145.039 43.3888 145.443 43.533 145.735 43.8246C145.97 44.0754 146.121 44.414 146.187 44.8435C145.625 44.6899 145.083 44.6021 144.556 44.577C143.866 44.5426 143.214 44.6397 142.597 44.8749C141.459 45.2887 140.891 46.1948 140.891 47.5931C140.891 48.1794 141.079 48.6841 141.459 49.1074C141.807 49.5212 142.258 49.8159 142.813 49.9915C143.368 50.167 143.885 50.2172 144.359 50.142C145.243 49.9977 145.873 49.6748 146.255 49.1701C146.281 49.4146 146.381 49.6184 146.553 49.7783C146.726 49.9382 146.939 50.0197 147.19 50.0197H147.933C148.064 50.0197 148.13 49.9507 148.13 49.8128V45.3796C148.13 44.1193 147.801 43.1662 147.143 42.5235C146.535 41.9466 145.716 41.6582 144.685 41.6582L144.688 41.6613ZM146.218 46.7591C146.193 47.2074 146.045 47.5743 145.779 47.8533C145.512 48.1323 145.133 48.2922 144.644 48.3267C144.092 48.3675 143.669 48.2577 143.374 47.9975C143.123 47.7875 142.998 47.5523 142.998 47.2921C142.998 46.8689 143.183 46.5647 143.556 46.3798C143.835 46.2418 144.124 46.1728 144.421 46.1728C144.7 46.1572 144.948 46.1572 145.155 46.1728C145.456 46.1917 145.744 46.2512 146.02 46.3484C146.052 46.3578 146.089 46.3704 146.14 46.386C146.19 46.4017 146.215 46.408 146.221 46.408V46.7528L146.218 46.7591Z" fill="#005D9D"/>
<path d="M152.407 38.8899H150.936C150.822 38.8899 150.729 38.9825 150.729 39.0968V49.8128C150.729 49.9271 150.822 50.0197 150.936 50.0197H152.407C152.521 50.0197 152.614 49.9271 152.614 49.8128V39.0968C152.614 38.9825 152.521 38.8899 152.407 38.8899Z" fill="#005D9D"/>
<path d="M163.558 39.3569H158.768C158.63 39.3569 158.561 39.4259 158.561 39.5639V49.8127C158.561 49.9507 158.63 50.0196 158.768 50.0196H160.238C160.376 50.0196 160.445 49.9507 160.445 49.8127V46.8657H163.499C164.671 46.8657 165.603 46.5365 166.292 45.8781C166.991 45.226 167.34 44.323 167.34 43.1693C167.34 42.0156 167.001 41.0938 166.321 40.3978C165.64 39.7049 164.722 39.3569 163.558 39.3569ZM165.189 44.439C164.809 44.8874 164.195 45.1131 163.345 45.1131H160.445V41.0342H163.408C164.878 41.0342 165.612 41.7146 165.612 43.0784C165.612 43.6396 165.471 44.0942 165.192 44.4422L165.189 44.439Z" fill="#005D9D"/>
<path d="M176.221 42.8871C175.83 42.4952 175.375 42.1849 174.864 41.956C174.353 41.7271 173.817 41.6143 173.262 41.6143C172.117 41.6143 171.13 42.0375 170.299 42.884C169.917 43.2728 169.616 43.7274 169.399 44.2478C169.183 44.7682 169.073 45.3106 169.073 45.8781C169.073 46.4456 169.183 46.9879 169.399 47.5084C169.616 48.0288 169.917 48.4834 170.299 48.8722C171.13 49.7187 172.117 50.1419 173.262 50.1419C173.817 50.1419 174.353 50.029 174.864 49.8002C175.375 49.5713 175.83 49.2641 176.221 48.869C176.604 48.4803 176.905 48.0257 177.121 47.5052C177.338 46.9848 177.447 46.4424 177.447 45.875C177.447 45.3075 177.338 44.7651 177.121 44.2447C176.905 43.7242 176.604 43.2696 176.221 42.8809V42.8871ZM174.905 47.5773C174.45 48.0476 173.901 48.2828 173.259 48.2828C172.616 48.2828 172.067 48.0476 171.613 47.5773C171.164 47.1133 170.939 46.5459 170.939 45.8781C170.939 45.2103 171.164 44.6522 171.613 44.1851C172.07 43.7274 172.619 43.4954 173.259 43.4954C173.898 43.4954 174.444 43.7242 174.905 44.1851C175.353 44.6491 175.579 45.2134 175.579 45.8781C175.579 46.5427 175.353 47.1133 174.905 47.5773Z" fill="#005D9D"/>
<path d="M181.316 38.8899H179.846C179.731 38.8899 179.639 38.9825 179.639 39.0968V49.8128C179.639 49.9271 179.731 50.0197 179.846 50.0197H181.316C181.43 50.0197 181.523 49.9271 181.523 49.8128V39.0968C181.523 38.9825 181.43 38.8899 181.316 38.8899Z" fill="#005D9D"/>
<path d="M185.138 38.8303C184.843 38.8303 184.589 38.9338 184.382 39.1376C184.175 39.3414 184.072 39.5953 184.072 39.8963C184.072 40.1973 184.175 40.4355 184.385 40.6393C184.595 40.8431 184.843 40.9466 185.135 40.9466C185.426 40.9466 185.674 40.8431 185.878 40.6393C186.081 40.4355 186.185 40.1878 186.185 39.8963C186.185 39.6047 186.085 39.3414 185.884 39.1376C185.683 38.9338 185.432 38.8303 185.138 38.8303Z" fill="#005D9D"/>
<path d="M185.872 41.793H184.401C184.263 41.793 184.194 41.8588 184.194 41.9905V49.8127C184.194 49.9507 184.263 50.0196 184.401 50.0196H185.872C186.009 50.0196 186.078 49.9507 186.078 49.8127V41.9905C186.078 41.8588 186.009 41.793 185.872 41.793Z" fill="#005D9D"/>
<path d="M193.377 48.358C193.336 48.2295 193.252 48.1887 193.123 48.2357C192.609 48.405 192.233 48.4144 191.997 48.2671C191.756 48.1448 191.609 47.9724 191.552 47.7467C191.49 47.5585 191.461 47.2199 191.461 46.7277V43.3449H193.346C193.484 43.3449 193.553 43.2759 193.553 43.138V41.9748C193.553 41.8431 193.484 41.7773 193.346 41.7773H191.461V40.031C191.461 39.8993 191.396 39.8335 191.264 39.8335H189.787C189.649 39.8335 189.58 39.8993 189.58 40.031V41.7773H188.486C188.348 41.7773 188.279 41.8431 188.279 41.9748V43.138C188.279 43.2759 188.348 43.3449 188.486 43.3449H189.58V46.7277C189.58 47.4363 189.649 48.0257 189.787 48.496C189.956 49.0634 190.273 49.4898 190.743 49.7814C191.189 50.051 191.747 50.1764 192.421 50.1576C192.813 50.1482 193.226 50.0761 193.662 49.9444C193.791 49.9131 193.832 49.8284 193.785 49.6905L193.38 48.358H193.377Z" fill="#005D9D"/>
<path d="M196.509 38.8303C196.214 38.8303 195.96 38.9338 195.753 39.1376C195.547 39.3414 195.443 39.5953 195.443 39.8963C195.443 40.1973 195.547 40.4355 195.757 40.6393C195.967 40.8431 196.214 40.9466 196.506 40.9466C196.798 40.9466 197.045 40.8431 197.249 40.6393C197.453 40.4355 197.556 40.1878 197.556 39.8963C197.556 39.6047 197.456 39.3414 197.255 39.1376C197.055 38.9338 196.804 38.8303 196.509 38.8303Z" fill="#005D9D"/>
<path d="M197.246 41.793H195.775C195.637 41.793 195.568 41.8588 195.568 41.9905V49.8127C195.568 49.9507 195.637 50.0196 195.775 50.0196H197.246C197.384 50.0196 197.453 49.9507 197.453 49.8127V41.9905C197.453 41.8588 197.384 41.793 197.246 41.793Z" fill="#005D9D"/>
<path d="M203.899 43.5457C204.648 43.5457 205.256 43.8529 205.72 44.4705C205.795 44.5614 205.886 44.5771 205.987 44.5176L207.241 43.7369C207.357 43.6711 207.372 43.577 207.288 43.4547C206.952 42.9845 206.557 42.602 206.109 42.3073C205.435 41.8777 204.698 41.6646 203.895 41.6646C202.71 41.6646 201.713 42.0878 200.901 42.9343C200.535 43.3168 200.249 43.7651 200.049 44.2824C199.848 44.7966 199.748 45.3358 199.748 45.897C199.748 46.4582 199.851 46.9975 200.058 47.5116C200.265 48.0258 200.557 48.4773 200.936 48.8598C201.318 49.2579 201.764 49.5683 202.268 49.794C202.773 50.0198 203.315 50.1295 203.899 50.1295C204.698 50.1295 205.438 49.9163 206.112 49.4868C206.529 49.2203 206.924 48.8472 207.291 48.3613C207.332 48.3111 207.347 48.2547 207.338 48.1982C207.329 48.1387 207.297 48.0948 207.247 48.0634L205.993 47.2828C205.874 47.2326 205.786 47.2514 205.726 47.3455C205.272 47.9537 204.664 48.2578 203.905 48.2578C203.294 48.2578 202.761 48.0258 202.312 47.5618C201.858 47.0915 201.632 46.5397 201.632 45.9002C201.632 45.2606 201.858 44.7276 202.312 44.2385C202.757 43.7808 203.287 43.5488 203.905 43.5488L203.899 43.5457Z" fill="#005D9D"/>
<path d="M213.003 45.0066C212.448 44.8498 212.119 44.7432 212.016 44.6931C211.649 44.5489 211.464 44.3294 211.464 44.0347C211.464 43.8623 211.548 43.6961 211.721 43.5362C211.893 43.3794 212.11 43.2948 212.376 43.2917C212.652 43.2917 212.865 43.3136 213.019 43.3606C213.395 43.4829 213.699 43.6428 213.931 43.8434L214.213 44.1099C214.301 44.1977 214.395 44.2009 214.495 44.1256L215.398 43.345C215.502 43.2415 215.514 43.1474 215.436 43.0628C215.141 42.7148 214.796 42.4263 214.411 42.1975C213.778 41.815 213.085 41.63 212.329 41.6457C211.526 41.6614 210.865 41.8808 210.338 42.3041C209.802 42.7493 209.542 43.3387 209.558 44.0786C209.573 44.8436 209.827 45.4173 210.323 45.7998C210.508 45.9565 210.752 46.1102 211.062 46.2575C211.373 46.4049 211.652 46.524 211.909 46.6181C212.163 46.709 212.539 46.8344 213.034 46.9943C213.213 47.0507 213.361 47.1448 213.473 47.2827C213.586 47.4207 213.646 47.5712 213.646 47.7467C213.655 47.9442 213.567 48.1135 213.379 48.2515C213.191 48.3894 212.947 48.4615 212.646 48.4647C212.15 48.4647 211.668 48.3393 211.191 48.0885C210.881 47.9348 210.602 47.7373 210.357 47.4928C210.235 47.3893 210.134 47.4019 210.059 47.5241L209.232 48.4804C209.197 48.5274 209.178 48.5775 209.181 48.634C209.181 48.6904 209.2 48.7343 209.232 48.7657C209.583 49.1168 209.962 49.3958 210.373 49.5996C211.05 49.9758 211.799 50.1577 212.614 50.142C213.524 50.1263 214.245 49.91 214.781 49.4867C215.317 49.0635 215.577 48.4741 215.561 47.7154C215.546 46.9755 215.292 46.3735 214.796 45.9095C214.417 45.5741 213.821 45.2731 213.006 45.0066H213.003Z" fill="#005D9D"/>
</svg>
